<svg width="21" height="20" viewBox="0 0 21 20" fill="none" xmlns="http://www.w3.org/2000/svg">
<path d="M11.8625 10.6945C11.6564 10.6945 11.4549 10.6334 11.2836 10.5189C11.1122 10.4045 10.9786 10.2418 10.8998 10.0514C10.8209 9.8611 10.8002 9.65165 10.8404 9.44959C10.8807 9.24752 10.9799 9.06192 11.1257 8.91624C11.2714 8.77056 11.4571 8.67135 11.6592 8.63116C11.8614 8.59096 12.0709 8.61159 12.2613 8.69043C12.4517 8.76928 12.6145 8.90279 12.729 9.07409C12.8435 9.24539 12.9046 9.44679 12.9046 9.65281C12.9046 9.92907 12.7948 10.194 12.5994 10.3894C12.404 10.5847 12.1389 10.6945 11.8625 10.6945ZM16.9695 7.41253C16.6906 5.80149 15.8506 4.34099 14.5981 3.28944C13.3456 2.2379 11.7614 1.66308 10.1257 1.6667C5.33201 1.6667 3.95922 4.91253 3.05259 7.06045C2.86875 7.66819 2.55622 8.22927 2.13623 8.70559C2.01077 8.77873 1.91139 8.88934 1.85208 9.02186C1.79276 9.15438 1.77649 9.30215 1.80555 9.4444C1.83461 9.58664 1.90754 9.71621 2.01408 9.81488C2.12063 9.91355 2.25543 9.97635 2.39953 9.99447C4.11678 10.1388 5.84391 9.87713 7.44123 9.23059C7.3531 9.42581 7.32732 9.64344 7.36739 9.85384C7.40746 10.0642 7.51145 10.2572 7.66518 10.4064C7.81891 10.5556 8.01491 10.6538 8.22649 10.6876C8.43807 10.7214 8.65494 10.6893 8.84756 10.5955C9.04018 10.5016 9.19919 10.3508 9.30293 10.1634C9.40667 9.97595 9.4501 9.76113 9.42729 9.54817C9.40449 9.33521 9.31657 9.13445 9.1755 8.97323C9.03443 8.81202 8.84708 8.69819 8.63896 8.64725C10.0038 7.88298 11.1803 6.82304 12.0821 5.54517C12.1393 5.47129 12.181 5.38663 12.2047 5.29625C12.2284 5.20587 12.2337 5.11163 12.2201 5.01919C12.2065 4.92674 12.1744 4.83798 12.1257 4.75823C12.077 4.67848 12.0127 4.60937 11.9367 4.55504C11.8606 4.50071 11.7744 4.46229 11.6831 4.44206C11.5919 4.42183 11.4975 4.42022 11.4056 4.43733C11.3137 4.45443 11.2262 4.4899 11.1483 4.5416C11.0704 4.5933 11.0038 4.66018 10.9524 4.73823C10.1422 5.8784 9.08463 6.82069 7.8587 7.49461C6.63276 8.16853 5.27024 8.55664 3.87307 8.62989C4.01971 8.33737 4.15675 8.01483 4.30037 7.67678C4.3112 7.65128 4.32207 7.6257 4.33298 7.60003C5.18751 5.57503 6.25115 3.05559 10.1257 3.05559C11.4984 3.05231 12.8234 3.5583 13.8443 4.47558C14.8651 5.39286 15.5092 6.65617 15.6516 8.02086C15.6675 8.17007 15.7314 8.31012 15.8335 8.42004C15.9357 8.52995 16.0708 8.60382 16.2185 8.63059C16.4716 8.68007 16.6974 8.82162 16.8522 9.02786C17.0069 9.2341 17.0797 9.49038 17.0563 9.74713C17.033 10.0039 16.9152 10.2429 16.7258 10.4178C16.5364 10.5928 16.2888 10.6914 16.0309 10.6945C15.9722 10.6928 15.9136 10.6866 15.8559 10.6757C15.6938 10.6462 15.5266 10.6755 15.3843 10.7584C15.242 10.8413 15.134 10.9723 15.0798 11.1278C14.4435 12.9313 12.3016 14.8611 10.1257 14.8611C8.11096 14.8611 6.23517 13.2757 5.42511 11.7091C5.34035 11.5455 5.19407 11.4223 5.01844 11.3666C4.84281 11.3108 4.65222 11.3271 4.4886 11.4118C4.32499 11.4966 4.20174 11.6428 4.14598 11.8183C4.09021 11.9939 4.1065 12.1844 4.19126 12.3479C4.91129 13.6909 6.00802 14.7944 7.34675 15.5229V17.6389C7.34675 17.8231 7.41994 17.9997 7.55023 18.13C7.68052 18.2602 7.85723 18.3334 8.04148 18.3334C8.22574 18.3334 8.40245 18.2602 8.53274 18.13C8.66302 17.9997 8.73622 17.8231 8.73622 17.6389V16.0681C9.64639 16.3125 10.605 16.3125 11.5152 16.0681V17.6389C11.5152 17.8231 11.5884 17.9997 11.7186 18.13C11.8489 18.2602 12.0256 18.3334 12.2099 18.3334C12.3942 18.3334 12.5709 18.2602 12.7011 18.13C12.8314 17.9997 12.9046 17.8231 12.9046 17.6389V15.5236C14.3387 14.753 15.4901 13.5462 16.1921 12.0778C16.738 12.0406 17.2554 11.8204 17.6607 11.4528C18.0659 11.0852 18.3352 10.5918 18.4251 10.0522C18.515 9.51271 18.4202 8.95863 18.1561 8.47962C17.892 8.0006 17.4739 7.62464 16.9695 7.41253Z" fill="currentColor"/>
<path d="M11.8625 10.6945C11.6564 10.6945 11.4549 10.6334 11.2836 10.5189C11.1122 10.4045 10.9786 10.2418 10.8998 10.0514C10.8209 9.8611 10.8002 9.65165 10.8404 9.44959C10.8807 9.24752 10.9799 9.06192 11.1257 8.91624C11.2714 8.77056 11.4571 8.67135 11.6592 8.63116C11.8614 8.59096 12.0709 8.61159 12.2613 8.69043C12.4517 8.76928 12.6145 8.90279 12.729 9.07409C12.8435 9.24539 12.9046 9.44679 12.9046 9.65281C12.9046 9.92907 12.7948 10.194 12.5994 10.3894C12.404 10.5847 12.1389 10.6945 11.8625 10.6945ZM16.9695 7.41253C16.6906 5.80149 15.8506 4.34099 14.5981 3.28944C13.3456 2.2379 11.7614 1.66308 10.1257 1.6667C5.33201 1.6667 3.95922 4.91253 3.05259 7.06045C2.86875 7.66819 2.55622 8.22927 2.13623 8.70559C2.01077 8.77873 1.91139 8.88934 1.85208 9.02186C1.79276 9.15438 1.77649 9.30215 1.80555 9.4444C1.83461 9.58664 1.90754 9.71621 2.01408 9.81488C2.12063 9.91355 2.25543 9.97635 2.39953 9.99447C4.11678 10.1388 5.84391 9.87713 7.44123 9.23059C7.3531 9.42581 7.32732 9.64344 7.36739 9.85384C7.40746 10.0642 7.51145 10.2572 7.66518 10.4064C7.81891 10.5556 8.01491 10.6538 8.22649 10.6876C8.43807 10.7214 8.65494 10.6893 8.84756 10.5955C9.04018 10.5016 9.19919 10.3508 9.30293 10.1634C9.40667 9.97595 9.4501 9.76113 9.42729 9.54817C9.40449 9.33521 9.31657 9.13445 9.1755 8.97323C9.03443 8.81202 8.84708 8.69819 8.63896 8.64725C10.0038 7.88298 11.1803 6.82304 12.0821 5.54517C12.1393 5.47129 12.181 5.38663 12.2047 5.29625C12.2284 5.20587 12.2337 5.11163 12.2201 5.01919C12.2065 4.92674 12.1744 4.83798 12.1257 4.75823C12.077 4.67848 12.0127 4.60937 11.9367 4.55504C11.8606 4.50071 11.7744 4.46229 11.6831 4.44206C11.5919 4.42183 11.4975 4.42022 11.4056 4.43733C11.3137 4.45443 11.2262 4.4899 11.1483 4.5416C11.0704 4.5933 11.0038 4.66018 10.9524 4.73823C10.1422 5.8784 9.08463 6.82069 7.8587 7.49461C6.63276 8.16853 5.27024 8.55664 3.87307 8.62989C4.01971 8.33737 4.15675 8.01483 4.30037 7.67678C4.3112 7.65128 4.32207 7.6257 4.33298 7.60003C5.18751 5.57503 6.25115 3.05559 10.1257 3.05559C11.4984 3.05231 12.8234 3.5583 13.8443 4.47558C14.8651 5.39286 15.5092 6.65617 15.6516 8.02086C15.6675 8.17007 15.7314 8.31012 15.8335 8.42004C15.9357 8.52995 16.0708 8.60382 16.2185 8.63059C16.4716 8.68007 16.6974 8.82162 16.8522 9.02786C17.0069 9.2341 17.0797 9.49038 17.0563 9.74713C17.033 10.0039 16.9152 10.2429 16.7258 10.4178C16.5364 10.5928 16.2888 10.6914 16.0309 10.6945C15.9722 10.6928 15.9136 10.6866 15.8559 10.6757C15.6938 10.6462 15.5266 10.6755 15.3843 10.7584C15.242 10.8413 15.134 10.9723 15.0798 11.1278C14.4435 12.9313 12.3016 14.8611 10.1257 14.8611C8.11096 14.8611 6.23517 13.2757 5.42511 11.7091C5.34035 11.5455 5.19407 11.4223 5.01844 11.3666C4.84281 11.3108 4.65222 11.3271 4.4886 11.4118C4.32499 11.4966 4.20174 11.6428 4.14598 11.8183C4.09021 11.9939 4.1065 12.1844 4.19126 12.3479C4.91129 13.6909 6.00802 14.7944 7.34675 15.5229V17.6389C7.34675 17.8231 7.41994 17.9997 7.55023 18.13C7.68052 18.2602 7.85723 18.3334 8.04148 18.3334C8.22574 18.3334 8.40245 18.2602 8.53274 18.13C8.66302 17.9997 8.73622 17.8231 8.73622 17.6389V16.0681C9.64639 16.3125 10.605 16.3125 11.5152 16.0681V17.6389C11.5152 17.8231 11.5884 17.9997 11.7186 18.13C11.8489 18.2602 12.0256 18.3334 12.2099 18.3334C12.3942 18.3334 12.5709 18.2602 12.7011 18.13C12.8314 17.9997 12.9046 17.8231 12.9046 17.6389V15.5236C14.3387 14.753 15.4901 13.5462 16.1921 12.0778C16.738 12.0406 17.2554 11.8204 17.6607 11.4528C18.0659 11.0852 18.3352 10.5918 18.4251 10.0522C18.515 9.51271 18.4202 8.95863 18.1561 8.47962C17.892 8.0006 17.4739 7.62464 16.9695 7.41253Z" />
</svg>
