<svg width="25" height="25" viewBox="0 0 25 25" fill="none" xmlns="http://www.w3.org/2000/svg">
<path d="M12.4998 0.416667C5.84192 0.416667 0.416504 5.84208 0.416504 12.5C0.416504 19.1579 5.84192 24.5833 12.4998 24.5833C19.1578 24.5833 24.5832 19.1579 24.5832 12.5C24.5832 5.84208 19.1578 0.416667 12.4998 0.416667ZM17.7561 16.8138C17.5869 17.1038 17.2848 17.2608 16.9707 17.2608C16.8136 17.2608 16.6565 17.2246 16.5115 17.1279L12.7657 14.8925C11.8353 14.3367 11.1465 13.1163 11.1465 12.0408V7.08667C11.1465 6.59125 11.5573 6.18042 12.0528 6.18042C12.5482 6.18042 12.959 6.59125 12.959 7.08667V12.0408C12.959 12.4758 13.3215 13.1163 13.6961 13.3338L17.4419 15.5692C17.8769 15.8229 18.0219 16.3788 17.7561 16.8138Z" fill="url(#paint0_linear_56_582)"/>
<defs>
<linearGradient id="paint0_linear_56_582" x1="12.4998" y1="0.416667" x2="12.4998" y2="24.5833" gradientUnits="userSpaceOnUse">
<stop stop-color="#FFEC88"/>
<stop offset="1" stop-color="#FFA95A"/>
</linearGradient>
</defs>
</svg>
