<svg width="18" height="18" viewBox="0 0 18 18" fill="none" xmlns="http://www.w3.org/2000/svg">
<path d="M10.6109 9.69441C10.4048 9.69441 10.2034 9.63332 10.0321 9.51886C9.86081 9.4044 9.72729 9.24171 9.64845 9.05138C9.5696 8.86104 9.54897 8.65159 9.58917 8.44953C9.62936 8.24746 9.72858 8.06186 9.87426 7.91618C10.0199 7.7705 10.2056 7.67129 10.4076 7.6311C10.6097 7.5909 10.8192 7.61153 11.0095 7.69037C11.1999 7.76921 11.3626 7.90273 11.477 8.07403C11.5915 8.24533 11.6526 8.44673 11.6526 8.65275C11.6526 8.92901 11.5428 9.19397 11.3475 9.38932C11.1521 9.58467 10.8871 9.69441 10.6109 9.69441ZM17.1563 13.2666C17.243 13.7654 17.2196 14.2771 17.0876 14.7658C16.9557 15.2545 16.7185 15.7085 16.3927 16.096C16.0668 16.4834 15.6602 16.7949 15.2013 17.0086C14.7424 17.2224 14.2423 17.3332 13.736 17.3333H10.9581C10.7739 17.3333 10.5973 17.2601 10.467 17.1299C10.3368 16.9997 10.2636 16.823 10.2636 16.6388V15.0673C9.81026 15.1869 9.34353 15.2482 8.87467 15.25C8.40554 15.2476 7.93869 15.1845 7.48571 15.0625V16.6388C7.48571 16.823 7.41255 16.9997 7.28231 17.1299C7.15207 17.2601 6.97542 17.3333 6.79124 17.3333H4.01332C3.50707 17.3332 3.00696 17.2224 2.54804 17.0086C2.08912 16.7949 1.6825 16.4834 1.35665 16.096C1.0308 15.7085 0.793606 15.2545 0.661695 14.7658C0.529784 14.2771 0.506343 13.7654 0.593014 13.2666L0.801357 12.0583C0.870637 11.6564 1.05873 11.2845 1.34137 10.9905C1.62402 10.6965 1.98826 10.494 2.38712 10.4089C2.78598 10.3239 3.20118 10.3603 3.57916 10.5134C3.95715 10.6665 4.2806 10.9294 4.50779 11.268C5.38561 12.5583 7.07528 13.8611 8.87467 13.8611C11.0484 13.8611 13.1902 11.9312 13.8263 10.1277C13.8774 9.99218 13.9684 9.87532 14.0873 9.79261C14.2062 9.7099 14.3475 9.66524 14.4923 9.66455L14.7923 9.66941C14.9268 9.67107 15.0602 9.64598 15.1849 9.59561C15.3096 9.54523 15.423 9.47057 15.5186 9.37597C15.6142 9.28137 15.69 9.16872 15.7417 9.04456C15.7933 8.9204 15.8197 8.78722 15.8195 8.65275C15.8192 8.40918 15.7336 8.1734 15.5776 7.9864C15.4215 7.79939 15.2048 7.67298 14.9653 7.62914C14.8175 7.60234 14.6824 7.52836 14.5802 7.41831C14.4781 7.30826 14.4143 7.16806 14.3986 7.01872C14.2558 5.65434 13.6119 4.39145 12.5914 3.47457C11.571 2.55769 10.2466 2.05204 8.87467 2.05553C5.00156 2.05553 3.93832 4.57497 3.08411 6.59997C2.92855 6.96594 2.78201 7.31525 2.62436 7.62983C4.02081 7.55599 5.38248 7.16733 6.60749 6.49292C7.8325 5.81852 8.88913 4.87583 9.69832 3.73539C9.75131 3.66116 9.8184 3.59809 9.89576 3.54978C9.97313 3.50148 10.0592 3.46888 10.1492 3.45385C10.2392 3.43883 10.3312 3.44167 10.4201 3.46221C10.5089 3.48276 10.5929 3.5206 10.6671 3.57359C10.7414 3.62657 10.8044 3.69366 10.8527 3.77102C10.901 3.84838 10.9336 3.93449 10.9487 4.02445C10.9637 4.11441 10.9609 4.20644 10.9403 4.2953C10.9198 4.38416 10.8819 4.4681 10.8289 4.54234C9.92752 5.82022 8.75149 6.88016 7.3871 7.64442C7.59508 7.69548 7.78227 7.80939 7.92317 7.97065C8.06408 8.13191 8.15186 8.33268 8.17456 8.54562C8.19727 8.75856 8.15378 8.97332 8.05004 9.16066C7.94629 9.348 7.78733 9.49881 7.59479 9.59257C7.40225 9.68632 7.18549 9.71846 6.97402 9.6846C6.76256 9.65075 6.56667 9.55254 6.41303 9.40337C6.25939 9.25419 6.15546 9.06128 6.11539 8.85092C6.07532 8.64055 6.10107 8.42295 6.18912 8.22775C4.59239 8.87427 2.8659 9.13595 1.14929 8.99164C1.00621 8.97246 0.872659 8.90917 0.767215 8.81058C0.66177 8.71199 0.589673 8.58298 0.56095 8.44152C0.532228 8.30005 0.548307 8.15315 0.606951 8.02124C0.665596 7.88933 0.763892 7.77898 0.888167 7.70553C1.308 7.22921 1.62041 6.66813 1.80418 6.06039C2.71048 3.91248 4.08277 0.666645 8.87467 0.666645C10.5097 0.662772 12.0934 1.23751 13.3454 2.28912C14.5974 3.34072 15.4369 4.80137 15.7153 6.41247C16.1572 6.59722 16.5347 6.90843 16.8004 7.30701C17.066 7.70558 17.208 8.17376 17.2084 8.65275C17.2072 9.22981 16.9965 9.7868 16.6153 10.2201C16.6202 10.2382 16.6327 10.2527 16.6362 10.2722L17.1563 13.2666ZM6.09676 14.5139C4.99827 13.9252 4.05907 13.0788 3.35982 12.0472C3.30031 11.9572 3.21957 11.8833 3.12474 11.832C3.0299 11.7806 2.92388 11.7534 2.81604 11.7527H2.80423C2.65219 11.7559 2.50597 11.8118 2.39057 11.9109C2.27517 12.0099 2.19776 12.146 2.17156 12.2958L1.96322 13.5034C1.91109 13.8026 1.92499 14.1095 2.00394 14.4027C2.0829 14.696 2.225 14.9684 2.4203 15.2009C2.61559 15.4334 2.85937 15.6205 3.13454 15.7489C3.40972 15.8773 3.70965 15.9441 4.01332 15.9444H6.09676V14.5139ZM15.7882 13.5034L15.3521 10.9944C15.22 11.0259 15.0855 11.0459 14.95 11.0541C14.2493 12.5325 13.0938 13.7478 11.6526 14.5222V15.9444H13.736C14.0398 15.9443 14.3399 15.8778 14.6153 15.7496C14.8906 15.6213 15.1346 15.4344 15.3302 15.2019C15.5257 14.9694 15.668 14.697 15.7471 14.4037C15.8262 14.1104 15.8403 13.8027 15.7882 13.5034Z" fill="currentColor"/>
</svg>
