<svg width="1440" height="916" viewBox="0 0 1440 916" fill="none" xmlns="http://www.w3.org/2000/svg">
<g filter="url(#filter0_d_324_1417)">
<rect x="330.695" y="853.696" width="589.428" height="277.121" transform="rotate(135 330.695 853.696)" fill="url(#paint0_linear_324_1417)"/>
</g>
<g filter="url(#filter1_d_324_1417)">
<rect x="967.607" y="978.593" width="393.99" height="204.245" transform="rotate(-45 967.607 978.593)" fill="url(#paint1_linear_324_1417)"/>
</g>
<g filter="url(#filter2_d_324_1417)">
<rect x="479.475" y="-116.093" width="610.342" height="286.954" transform="rotate(135 479.475 -116.093)" fill="url(#paint2_linear_324_1417)"/>
</g>
<g opacity="0.4">
<circle cx="1402.2" cy="268.999" r="6" transform="rotate(-135 1402.2 268.999)" fill="white"/>
<circle cx="1422" cy="249.2" r="6" transform="rotate(-135 1422 249.2)" fill="white"/>
<circle cx="1441.8" cy="229.401" r="6" transform="rotate(-135 1441.8 229.401)" fill="white"/>
<circle cx="1382.4" cy="249.2" r="6" transform="rotate(-135 1382.4 249.2)" fill="white"/>
<circle cx="1402.2" cy="229.401" r="6" transform="rotate(-135 1402.2 229.401)" fill="white"/>
<circle cx="1422" cy="209.602" r="6" transform="rotate(-135 1422 209.602)" fill="white"/>
<circle cx="1441.8" cy="189.803" r="6" transform="rotate(-135 1441.8 189.803)" fill="white"/>
<circle cx="1362.6" cy="229.401" r="6" transform="rotate(-135 1362.6 229.401)" fill="white"/>
<circle cx="1382.4" cy="209.602" r="6" transform="rotate(-135 1382.4 209.602)" fill="white"/>
<circle cx="1402.2" cy="189.803" r="6" transform="rotate(-135 1402.2 189.803)" fill="white"/>
<circle cx="1422" cy="170.004" r="6" transform="rotate(-135 1422 170.004)" fill="white"/>
<circle cx="1441.8" cy="150.205" r="6" transform="rotate(-135 1441.8 150.205)" fill="white"/>
<circle cx="1342.8" cy="209.602" r="6" transform="rotate(-135 1342.8 209.602)" fill="white"/>
<circle cx="1362.6" cy="189.803" r="6" transform="rotate(-135 1362.6 189.803)" fill="white"/>
<circle cx="1382.4" cy="170.004" r="6" transform="rotate(-135 1382.4 170.004)" fill="white"/>
<circle cx="1402.2" cy="150.205" r="6" transform="rotate(-135 1402.2 150.205)" fill="white"/>
<circle cx="1422" cy="130.406" r="6" transform="rotate(-135 1422 130.406)" fill="white"/>
<circle cx="1441.8" cy="110.607" r="6" transform="rotate(-135 1441.8 110.607)" fill="white"/>
<circle cx="1323" cy="189.803" r="6" transform="rotate(-135 1323 189.803)" fill="white"/>
<circle cx="1342.8" cy="170.004" r="6" transform="rotate(-135 1342.8 170.004)" fill="white"/>
<circle cx="1362.6" cy="150.205" r="6" transform="rotate(-135 1362.6 150.205)" fill="white"/>
<circle cx="1382.4" cy="130.406" r="6" transform="rotate(-135 1382.4 130.406)" fill="white"/>
<circle cx="1402.2" cy="110.607" r="6" transform="rotate(-135 1402.2 110.607)" fill="white"/>
<circle cx="1422" cy="90.808" r="6" transform="rotate(-135 1422 90.808)" fill="white"/>
<circle cx="1441.8" cy="71.009" r="6" transform="rotate(-135 1441.8 71.009)" fill="white"/>
<circle cx="1303.2" cy="170.004" r="6" transform="rotate(-135 1303.2 170.004)" fill="white"/>
<circle cx="1323" cy="150.205" r="6" transform="rotate(-135 1323 150.205)" fill="white"/>
<circle cx="1342.8" cy="130.406" r="6" transform="rotate(-135 1342.8 130.406)" fill="white"/>
<circle cx="1362.6" cy="110.607" r="6" transform="rotate(-135 1362.6 110.607)" fill="white"/>
<circle cx="1382.4" cy="90.808" r="6" transform="rotate(-135 1382.4 90.808)" fill="white"/>
<circle cx="1402.2" cy="71.009" r="6" transform="rotate(-135 1402.2 71.009)" fill="white"/>
<circle cx="1422" cy="51.21" r="6" transform="rotate(-135 1422 51.21)" fill="white"/>
<circle cx="1283.41" cy="150.205" r="6" transform="rotate(-135 1283.41 150.205)" fill="white"/>
<circle cx="1303.2" cy="130.406" r="6" transform="rotate(-135 1303.2 130.406)" fill="white"/>
<circle cx="1323" cy="110.607" r="6" transform="rotate(-135 1323 110.607)" fill="white"/>
<circle cx="1342.8" cy="90.808" r="6" transform="rotate(-135 1342.8 90.808)" fill="white"/>
<circle cx="1362.6" cy="71.009" r="6" transform="rotate(-135 1362.6 71.009)" fill="white"/>
<circle cx="1382.4" cy="51.21" r="6" transform="rotate(-135 1382.4 51.21)" fill="white"/>
<circle cx="1402.2" cy="31.411" r="6" transform="rotate(-135 1402.2 31.411)" fill="white"/>
</g>
<g opacity="0.4">
<circle cx="612.199" cy="398.999" r="6" transform="rotate(-135 612.199 398.999)" fill="white"/>
<circle cx="631.998" cy="379.2" r="6" transform="rotate(-135 631.998 379.2)" fill="white"/>
<circle cx="651.797" cy="359.401" r="6" transform="rotate(-135 651.797 359.401)" fill="white"/>
<circle cx="671.597" cy="339.602" r="6" transform="rotate(-135 671.597 339.602)" fill="white"/>
<circle cx="691.396" cy="319.803" r="6" transform="rotate(-135 691.396 319.803)" fill="white"/>
<circle cx="711.194" cy="300.004" r="6" transform="rotate(-135 711.194 300.004)" fill="white"/>
<circle cx="730.993" cy="280.205" r="6" transform="rotate(-135 730.993 280.205)" fill="white"/>
<circle cx="592.4" cy="379.2" r="6" transform="rotate(-135 592.4 379.2)" fill="white"/>
<circle cx="612.199" cy="359.401" r="6" transform="rotate(-135 612.199 359.401)" fill="white"/>
<circle cx="631.998" cy="339.602" r="6" transform="rotate(-135 631.998 339.602)" fill="white"/>
<circle cx="651.797" cy="319.803" r="6" transform="rotate(-135 651.797 319.803)" fill="white"/>
<circle cx="671.597" cy="300.004" r="6" transform="rotate(-135 671.597 300.004)" fill="white"/>
<circle cx="691.396" cy="280.205" r="6" transform="rotate(-135 691.396 280.205)" fill="white"/>
<circle cx="711.194" cy="260.406" r="6" transform="rotate(-135 711.194 260.406)" fill="white"/>
<circle cx="572.602" cy="359.401" r="6" transform="rotate(-135 572.602 359.401)" fill="white"/>
<circle cx="592.4" cy="339.602" r="6" transform="rotate(-135 592.4 339.602)" fill="white"/>
<circle cx="612.199" cy="319.803" r="6" transform="rotate(-135 612.199 319.803)" fill="white"/>
<circle cx="631.998" cy="300.004" r="6" transform="rotate(-135 631.998 300.004)" fill="white"/>
<circle cx="651.797" cy="280.205" r="6" transform="rotate(-135 651.797 280.205)" fill="white"/>
<circle cx="671.597" cy="260.406" r="6" transform="rotate(-135 671.597 260.406)" fill="white"/>
<circle cx="691.396" cy="240.607" r="6" transform="rotate(-135 691.396 240.607)" fill="white"/>
<circle cx="552.803" cy="339.602" r="6" transform="rotate(-135 552.803 339.602)" fill="white"/>
<circle cx="572.602" cy="319.803" r="6" transform="rotate(-135 572.602 319.803)" fill="white"/>
<circle cx="592.4" cy="300.004" r="6" transform="rotate(-135 592.4 300.004)" fill="white"/>
<circle cx="612.199" cy="280.205" r="6" transform="rotate(-135 612.199 280.205)" fill="white"/>
<circle cx="631.998" cy="260.406" r="6" transform="rotate(-135 631.998 260.406)" fill="white"/>
<circle cx="651.797" cy="240.607" r="6" transform="rotate(-135 651.797 240.607)" fill="white"/>
<circle cx="671.597" cy="220.808" r="6" transform="rotate(-135 671.597 220.808)" fill="white"/>
<circle cx="533.003" cy="319.803" r="6" transform="rotate(-135 533.003 319.803)" fill="white"/>
<circle cx="552.803" cy="300.004" r="6" transform="rotate(-135 552.803 300.004)" fill="white"/>
<circle cx="572.602" cy="280.205" r="6" transform="rotate(-135 572.602 280.205)" fill="white"/>
<circle cx="592.4" cy="260.406" r="6" transform="rotate(-135 592.4 260.406)" fill="white"/>
<circle cx="612.199" cy="240.607" r="6" transform="rotate(-135 612.199 240.607)" fill="white"/>
<circle cx="631.998" cy="220.808" r="6" transform="rotate(-135 631.998 220.808)" fill="white"/>
<circle cx="651.797" cy="201.009" r="6" transform="rotate(-135 651.797 201.009)" fill="white"/>
<circle cx="513.204" cy="300.004" r="6" transform="rotate(-135 513.204 300.004)" fill="white"/>
<circle cx="533.003" cy="280.205" r="6" transform="rotate(-135 533.003 280.205)" fill="white"/>
<circle cx="552.803" cy="260.406" r="6" transform="rotate(-135 552.803 260.406)" fill="white"/>
<circle cx="572.602" cy="240.607" r="6" transform="rotate(-135 572.602 240.607)" fill="white"/>
<circle cx="592.4" cy="220.808" r="6" transform="rotate(-135 592.4 220.808)" fill="white"/>
<circle cx="612.199" cy="201.009" r="6" transform="rotate(-135 612.199 201.009)" fill="white"/>
<circle cx="631.998" cy="181.21" r="6" transform="rotate(-135 631.998 181.21)" fill="white"/>
<circle cx="493.405" cy="280.205" r="6" transform="rotate(-135 493.405 280.205)" fill="white"/>
<circle cx="513.204" cy="260.406" r="6" transform="rotate(-135 513.204 260.406)" fill="white"/>
<circle cx="533.003" cy="240.607" r="6" transform="rotate(-135 533.003 240.607)" fill="white"/>
<circle cx="552.803" cy="220.808" r="6" transform="rotate(-135 552.803 220.808)" fill="white"/>
<circle cx="572.602" cy="201.009" r="6" transform="rotate(-135 572.602 201.009)" fill="white"/>
<circle cx="592.4" cy="181.21" r="6" transform="rotate(-135 592.4 181.21)" fill="white"/>
<circle cx="612.199" cy="161.411" r="6" transform="rotate(-135 612.199 161.411)" fill="white"/>
</g>
<g opacity="0.4">
<circle cx="322.205" cy="915.999" r="6" transform="rotate(-135 322.205 915.999)" fill="white"/>
<circle cx="342.003" cy="896.2" r="6" transform="rotate(-135 342.003 896.2)" fill="white"/>
<circle cx="361.803" cy="876.401" r="6" transform="rotate(-135 361.803 876.401)" fill="white"/>
<circle cx="381.602" cy="856.602" r="6" transform="rotate(-135 381.602 856.602)" fill="white"/>
<circle cx="401.4" cy="836.803" r="6" transform="rotate(-135 401.4 836.803)" fill="white"/>
<circle cx="421.2" cy="817.004" r="6" transform="rotate(-135 421.2 817.004)" fill="white"/>
<circle cx="440.999" cy="797.205" r="6" transform="rotate(-135 440.999 797.205)" fill="white"/>
<circle cx="302.406" cy="896.2" r="6" transform="rotate(-135 302.406 896.2)" fill="white"/>
<circle cx="322.205" cy="876.401" r="6" transform="rotate(-135 322.205 876.401)" fill="white"/>
<circle cx="342.003" cy="856.602" r="6" transform="rotate(-135 342.003 856.602)" fill="white"/>
<circle cx="361.803" cy="836.803" r="6" transform="rotate(-135 361.803 836.803)" fill="white"/>
<circle cx="381.602" cy="817.004" r="6" transform="rotate(-135 381.602 817.004)" fill="white"/>
<circle cx="401.4" cy="797.205" r="6" transform="rotate(-135 401.4 797.205)" fill="white"/>
<circle cx="421.2" cy="777.406" r="6" transform="rotate(-135 421.2 777.406)" fill="white"/>
<circle cx="282.606" cy="876.401" r="6" transform="rotate(-135 282.606 876.401)" fill="white"/>
<circle cx="302.406" cy="856.602" r="6" transform="rotate(-135 302.406 856.602)" fill="white"/>
<circle cx="322.205" cy="836.803" r="6" transform="rotate(-135 322.205 836.803)" fill="white"/>
<circle cx="342.003" cy="817.004" r="6" transform="rotate(-135 342.003 817.004)" fill="white"/>
<circle cx="361.803" cy="797.205" r="6" transform="rotate(-135 361.803 797.205)" fill="white"/>
<circle cx="381.602" cy="777.406" r="6" transform="rotate(-135 381.602 777.406)" fill="white"/>
<circle cx="401.4" cy="757.607" r="6" transform="rotate(-135 401.4 757.607)" fill="white"/>
<circle cx="262.808" cy="856.602" r="6" transform="rotate(-135 262.808 856.602)" fill="white"/>
<circle cx="282.606" cy="836.803" r="6" transform="rotate(-135 282.606 836.803)" fill="white"/>
<circle cx="302.406" cy="817.004" r="6" transform="rotate(-135 302.406 817.004)" fill="white"/>
<circle cx="322.205" cy="797.205" r="6" transform="rotate(-135 322.205 797.205)" fill="white"/>
<circle cx="342.003" cy="777.406" r="6" transform="rotate(-135 342.003 777.406)" fill="white"/>
<circle cx="361.803" cy="757.607" r="6" transform="rotate(-135 361.803 757.607)" fill="white"/>
<circle cx="381.602" cy="737.808" r="6" transform="rotate(-135 381.602 737.808)" fill="white"/>
<circle cx="243.009" cy="836.803" r="6" transform="rotate(-135 243.009 836.803)" fill="white"/>
<circle cx="262.808" cy="817.004" r="6" transform="rotate(-135 262.808 817.004)" fill="white"/>
<circle cx="282.606" cy="797.205" r="6" transform="rotate(-135 282.606 797.205)" fill="white"/>
<circle cx="302.406" cy="777.406" r="6" transform="rotate(-135 302.406 777.406)" fill="white"/>
<circle cx="322.205" cy="757.607" r="6" transform="rotate(-135 322.205 757.607)" fill="white"/>
<circle cx="342.003" cy="737.808" r="6" transform="rotate(-135 342.003 737.808)" fill="white"/>
<circle cx="361.803" cy="718.009" r="6" transform="rotate(-135 361.803 718.009)" fill="white"/>
<circle cx="223.209" cy="817.004" r="6" transform="rotate(-135 223.209 817.004)" fill="white"/>
<circle cx="243.009" cy="797.205" r="6" transform="rotate(-135 243.009 797.205)" fill="white"/>
<circle cx="262.808" cy="777.406" r="6" transform="rotate(-135 262.808 777.406)" fill="white"/>
<circle cx="282.606" cy="757.607" r="6" transform="rotate(-135 282.606 757.607)" fill="white"/>
<circle cx="302.406" cy="737.808" r="6" transform="rotate(-135 302.406 737.808)" fill="white"/>
<circle cx="322.205" cy="718.009" r="6" transform="rotate(-135 322.205 718.009)" fill="white"/>
<circle cx="342.003" cy="698.21" r="6" transform="rotate(-135 342.003 698.21)" fill="white"/>
<circle cx="203.411" cy="797.205" r="6" transform="rotate(-135 203.411 797.205)" fill="white"/>
<circle cx="223.209" cy="777.406" r="6" transform="rotate(-135 223.209 777.406)" fill="white"/>
<circle cx="243.009" cy="757.607" r="6" transform="rotate(-135 243.009 757.607)" fill="white"/>
<circle cx="262.808" cy="737.808" r="6" transform="rotate(-135 262.808 737.808)" fill="white"/>
<circle cx="282.606" cy="718.009" r="6" transform="rotate(-135 282.606 718.009)" fill="white"/>
<circle cx="302.406" cy="698.21" r="6" transform="rotate(-135 302.406 698.21)" fill="white"/>
<circle cx="322.205" cy="678.411" r="6" transform="rotate(-135 322.205 678.411)" fill="white"/>
</g>
<path d="M1404.42 980.843L1263 839.421" stroke="white" stroke-opacity="0.5" stroke-width="2"/>
<path d="M1418.56 966.701L1277.14 825.279" stroke="white" stroke-opacity="0.5" stroke-width="2"/>
<path d="M1432.71 952.558L1291.28 811.137" stroke="white" stroke-opacity="0.5" stroke-width="2"/>
<path d="M1446.85 938.416L1305.43 796.995" stroke="white" stroke-opacity="0.5" stroke-width="2"/>
<path d="M1460.99 924.274L1319.57 782.853" stroke="white" stroke-opacity="0.5" stroke-width="2"/>
<path d="M1475.13 910.132L1333.71 768.711" stroke="white" stroke-opacity="0.5" stroke-width="2"/>
<path d="M1489.27 895.99L1347.85 754.569" stroke="white" stroke-opacity="0.5" stroke-width="2"/>
<path d="M1503.42 881.848L1361.99 740.426" stroke="white" stroke-opacity="0.5" stroke-width="2"/>
<path d="M1517.56 867.706L1376.14 726.284" stroke="white" stroke-opacity="0.5" stroke-width="2"/>
<path d="M1531.7 853.563L1390.28 712.142" stroke="white" stroke-opacity="0.5" stroke-width="2"/>
<path d="M1545.84 839.421L1404.42 698" stroke="white" stroke-opacity="0.5" stroke-width="2"/>
<path d="M183.421 399.843L42 258.421" stroke="white" stroke-opacity="0.5" stroke-width="2"/>
<path d="M197.563 385.701L56.1421 244.279" stroke="white" stroke-opacity="0.5" stroke-width="2"/>
<path d="M211.706 371.559L70.2842 230.137" stroke="white" stroke-opacity="0.5" stroke-width="2"/>
<path d="M225.848 357.416L84.4263 215.995" stroke="white" stroke-opacity="0.5" stroke-width="2"/>
<path d="M239.99 343.274L98.5684 201.853" stroke="white" stroke-opacity="0.5" stroke-width="2"/>
<path d="M254.132 329.132L112.71 187.711" stroke="white" stroke-opacity="0.5" stroke-width="2"/>
<path d="M268.274 314.99L126.853 173.569" stroke="white" stroke-opacity="0.5" stroke-width="2"/>
<path d="M282.417 300.848L140.995 159.427" stroke="white" stroke-opacity="0.5" stroke-width="2"/>
<path d="M296.559 286.706L155.137 145.284" stroke="white" stroke-opacity="0.5" stroke-width="2"/>
<path d="M310.701 272.564L169.279 131.142" stroke="white" stroke-opacity="0.5" stroke-width="2"/>
<path d="M324.843 258.421L183.421 117" stroke="white" stroke-opacity="0.5" stroke-width="2"/>
<defs>
<filter id="filter0_d_324_1417" x="-307.047" y="636.742" width="662.742" height="662.742" filterUnits="userSpaceOnUse" color-interpolation-filters="sRGB">
<feFlood flood-opacity="0" result="BackgroundImageFix"/>
<feColorMatrix in="SourceAlpha" type="matrix" values="0 0 0 0 0 0 0 0 0 0 0 0 0 0 0 0 0 0 127 0" result="hardAlpha"/>
<feOffset dy="4"/>
<feGaussianBlur stdDeviation="12.5"/>
<feComposite in2="hardAlpha" operator="out"/>
<feColorMatrix type="matrix" values="0 0 0 0 0 0 0 0 0 0 0 0 0 0 0 0 0 0 0.25 0"/>
<feBlend mode="normal" in2="BackgroundImageFix" result="effect1_dropShadow_324_1417"/>
<feBlend mode="normal" in="SourceGraphic" in2="effect1_dropShadow_324_1417" result="shape"/>
</filter>
<filter id="filter1_d_324_1417" x="942.607" y="679" width="473.017" height="473.016" filterUnits="userSpaceOnUse" color-interpolation-filters="sRGB">
<feFlood flood-opacity="0" result="BackgroundImageFix"/>
<feColorMatrix in="SourceAlpha" type="matrix" values="0 0 0 0 0 0 0 0 0 0 0 0 0 0 0 0 0 0 127 0" result="hardAlpha"/>
<feOffset dy="4"/>
<feGaussianBlur stdDeviation="12.5"/>
<feComposite in2="hardAlpha" operator="out"/>
<feColorMatrix type="matrix" values="0 0 0 0 0 0 0 0 0 0 0 0 0 0 0 0 0 0 0.25 0"/>
<feBlend mode="normal" in2="BackgroundImageFix" result="effect1_dropShadow_324_1417"/>
<feBlend mode="normal" in="SourceGraphic" in2="effect1_dropShadow_324_1417" result="shape"/>
</filter>
<filter id="filter2_d_324_1417" x="-180.009" y="-340" width="684.484" height="684.484" filterUnits="userSpaceOnUse" color-interpolation-filters="sRGB">
<feFlood flood-opacity="0" result="BackgroundImageFix"/>
<feColorMatrix in="SourceAlpha" type="matrix" values="0 0 0 0 0 0 0 0 0 0 0 0 0 0 0 0 0 0 127 0" result="hardAlpha"/>
<feOffset dy="4"/>
<feGaussianBlur stdDeviation="12.5"/>
<feComposite in2="hardAlpha" operator="out"/>
<feColorMatrix type="matrix" values="0 0 0 0 0 0 0 0 0 0 0 0 0 0 0 0 0 0 0.25 0"/>
<feBlend mode="normal" in2="BackgroundImageFix" result="effect1_dropShadow_324_1417"/>
<feBlend mode="normal" in="SourceGraphic" in2="effect1_dropShadow_324_1417" result="shape"/>
</filter>
<linearGradient id="paint0_linear_324_1417" x1="806.66" y1="933.705" x2="233.385" y2="932.806" gradientUnits="userSpaceOnUse">
<stop stop-color="#EB5C24"/>
<stop offset="1" stop-color="#FF546B"/>
</linearGradient>
<linearGradient id="paint1_linear_324_1417" x1="976.532" y1="1082.11" x2="1217.8" y2="1079.9" gradientUnits="userSpaceOnUse">
<stop stop-color="#EB5C24"/>
<stop offset="1" stop-color="#FFCD20"/>
</linearGradient>
<linearGradient id="paint2_linear_324_1417" x1="972.329" y1="-33.2448" x2="378.712" y2="-34.1755" gradientUnits="userSpaceOnUse">
<stop stop-color="#26B7B4"/>
<stop offset="1" stop-color="#0D5997"/>
</linearGradient>
</defs>
</svg>
