<?xml version="1.0" encoding="utf-8"?>
<!-- Generator: Adobe Illustrator 28.0.0, SVG Export Plug-In . SVG Version: 6.00 Build 0)  -->
<svg version="1.1" id="Layer_1" xmlns="http://www.w3.org/2000/svg" xmlns:xlink="http://www.w3.org/1999/xlink" x="0px" y="0px"
	 viewBox="0 0 800 800" style="enable-background:new 0 0 800 800;" xml:space="preserve">
<style type="text/css">
	.st0{opacity:0.5;fill:#FFCD20;enable-background:new    ;}
	.st1{fill:#FFCD20;}
</style>
<path class="st0" d="M400,733.7c184.1,0,333.3-149.2,333.3-333.3C733.3,216.2,584.1,67,400,67C215.9,67,66.7,216.2,66.7,400.3
	C66.7,584.4,215.9,733.7,400,733.7z"/>
<path class="st1" d="M400,231.3c-69,0-125,56-125,125C275,424,328,479,398.3,481c1,0,2.3,0,3,0c0.7,0,1.7,0,2.3,0c0.3,0,0.7,0,0.7,0
	c67.3-2.3,120.3-57,120.7-124.7C525,287.3,469,231.3,400,231.3z"/>
<path class="st1" d="M626,645.3c-59.3,54.7-138.7,88.3-226,88.3S233.4,700,174,645.3c8-30.3,29.7-58,61.3-79.3
	c91-60.7,239-60.7,329.3,0C596.7,587.3,618,615,626,645.3z"/>
</svg>
