<?xml version="1.0" encoding="utf-8"?>
<!-- Generator: Adobe Illustrator 28.0.0, SVG Export Plug-In . SVG Version: 6.00 Build 0)  -->
<svg version="1.1" id="Layer_1" xmlns="http://www.w3.org/2000/svg" xmlns:xlink="http://www.w3.org/1999/xlink" x="0px" y="0px"
	 viewBox="0 0 800 800" style="enable-background:new 0 0 800 800;" xml:space="preserve">
<style type="text/css">
	.st0{opacity:0.5;fill:#FFCD20;enable-background:new    ;}
	.st1{fill:#FFCD20;}
</style>
<path class="st0" d="M400,733.3c-157.1,0-235.7,0-284.5-48.8C66.7,635.7,66.7,557.1,66.7,400c0-157.1,0-235.7,48.8-284.5
	C164.3,66.7,242.9,66.7,400,66.7c157.1,0,235.7,0,284.5,48.8c48.8,48.8,48.8,127.4,48.8,284.5c0,157.1,0,235.7-48.8,284.5
	C635.7,733.3,557.1,733.3,400,733.3z"/>
<path class="st1" d="M400,258.3c-20.7,0-37.5,16.8-37.5,37.5c0,13.8-11.2,25-25,25c-13.8,0-25-11.2-25-25
	c0-48.3,39.2-87.5,87.5-87.5s87.5,39.2,87.5,87.5c0,23.7-9.4,45.2-24.7,61c-3.1,3.2-6,6.1-8.8,8.9c-7.2,7.2-13.5,13.5-19,20.6
	c-7.3,9.4-9.9,16.3-9.9,22v25c0,13.8-11.2,25-25,25c-13.8,0-25-11.2-25-25v-25c0-21.8,10.2-39.5,20.5-52.8
	c7.6-9.8,17.2-19.4,25-27.1c2.3-2.3,4.5-4.5,6.4-6.5c6.6-6.8,10.6-16,10.6-26.1C437.5,275.1,420.7,258.3,400,258.3z"/>
<path class="st1" d="M400,566.7c18.4,0,33.3-14.9,33.3-33.3c0-18.4-14.9-33.3-33.3-33.3c-18.4,0-33.3,14.9-33.3,33.3
	C366.7,551.7,381.6,566.7,400,566.7z"/>
</svg>
