<svg xmlns="http://www.w3.org/2000/svg" xmlns:xlink="http://www.w3.org/1999/xlink" viewBox="0 0 650 528" width="650" height="528" preserveAspectRatio="xMidYMid meet" style="width: 100%; height: 100%; transform: translate3d(0px, 0px, 0px); content-visibility: visible;"><defs><clipPath id="__lottie_element_3874"><rect width="650" height="528" x="0" y="0"></rect></clipPath></defs><g clip-path="url(#__lottie_element_3874)"><g transform="matrix(1.9800000190734863,0,0,1.9800000190734863,175.27981567382812,113.47891235351562)" opacity="1" style="display: block;"><path stroke-linecap="butt" stroke-linejoin="miter" fill-opacity="0" stroke-miterlimit="4" stroke="rgb(26,26,26)" stroke-opacity="1" stroke-width="2" d=" M73.58,142.29 C73.58,148.52 68.48,153.63 62.25,153.63 C62.25,153.63 12.11,153.63 12.11,153.63 C5.87,153.63 0.77,148.52 0.77,142.29 C0.77,142.29 0.77,11.71 0.77,11.71 C0.77,5.48 5.87,0.37 12.11,0.37 C12.11,0.37 62.25,0.37 62.25,0.37 C68.48,0.37 73.58,5.48 73.58,11.71 C73.58,11.71 73.58,142.29 73.58,142.29z M67.85,133.5 C67.85,133.5 5.6,133.5 5.6,133.5 C5.6,133.5 5.6,21.22 5.6,21.22 C5.6,21.22 67.85,21.22 67.85,21.22 C67.85,21.22 67.85,133.5 67.85,133.5z M41.85,142.56 C41.85,145.39 39.56,147.69 36.73,147.69 C33.9,147.69 31.61,145.39 31.61,142.56 C31.61,139.74 33.9,137.44 36.73,137.44 C39.56,137.44 41.85,139.74 41.85,142.56z M42.22,14.01 C42.22,14.85 41.52,15.54 40.68,15.54 C40.68,15.54 31.13,15.54 31.13,15.54 C30.29,15.54 29.59,14.85 29.59,14.01 C29.59,13.17 30.29,12.48 31.13,12.48 C31.13,12.48 40.68,12.48 40.68,12.48 C41.52,12.48 42.22,13.17 42.22,14.01z"></path><g opacity="1" transform="matrix(0.9980000257492065,0,0,0.9980000257492065,37.176998138427734,77.00199890136719)"></g><g opacity="1" transform="matrix(1,0,0,1,36.72800064086914,77.35900115966797)"></g><g opacity="1" transform="matrix(1,0,0,1,36.72700119018555,142.56399536132812)"></g><g opacity="1" transform="matrix(1,0,0,1,35.904998779296875,14.012999534606934)"></g></g><g transform="matrix(0.002253602957352996,1.9799987077713013,-1.9799987077713013,0.002253602957352996,478.96124267578125,272.43389892578125)" opacity="1" style="display: block;"><g opacity="1" transform="matrix(0.9980000257492065,0,0,0.9980000257492065,37.176998138427734,77.00199890136719)"><path fill="rgb(25,25,25)" fill-opacity="1" d=" M36.47800064086914,65.4219970703125 C36.47800064086914,71.66500091552734 31.368999481201172,76.78099822998047 25.1200008392334,76.78099822998047 C25.1200008392334,76.78099822998047 -25.1200008392334,76.78099822998047 -25.1200008392334,76.78099822998047 C-31.371999740600586,76.78099822998047 -36.47800064086914,71.66500091552734 -36.47800064086914,65.4219970703125 C-36.47800064086914,65.4219970703125 -36.47800064086914,-65.4219970703125 -36.47800064086914,-65.4219970703125 C-36.47800064086914,-71.66799926757812 -31.371999740600586,-76.78099822998047 -25.1200008392334,-76.78099822998047 C-25.1200008392334,-76.78099822998047 25.1200008392334,-76.78099822998047 25.1200008392334,-76.78099822998047 C31.368999481201172,-76.78099822998047 36.47800064086914,-71.66799926757812 36.47800064086914,-65.4219970703125 C36.47800064086914,-65.4219970703125 36.47800064086914,65.4219970703125 36.47800064086914,65.4219970703125z"></path></g><g opacity="1" transform="matrix(1,0,0,1,36.72800064086914,77.35900115966797)"><path fill="rgb(229,229,229)" fill-opacity="1" d=" M31.125,56.13800048828125 C31.125,56.13800048828125 -31.125,56.13800048828125 -31.125,56.13800048828125 C-31.125,56.13800048828125 -31.125,-56.13800048828125 -31.125,-56.13800048828125 C-31.125,-56.13800048828125 31.125,-56.13800048828125 31.125,-56.13800048828125 C31.125,-56.13800048828125 31.125,56.13800048828125 31.125,56.13800048828125z"></path></g><g opacity="1" transform="matrix(1,0,0,1,36.72700119018555,142.56399536132812)"><path fill="rgb(102,102,102)" fill-opacity="1" d=" M5.122000217437744,-0.003000000026077032 C5.122000217437744,2.8259999752044678 2.8289999961853027,5.123000144958496 0.0010000000474974513,5.123000144958496 C-2.8269999027252197,5.123000144958496 -5.122000217437744,2.8259999752044678 -5.122000217437744,-0.003000000026077032 C-5.122000217437744,-2.828000068664551 -2.8269999027252197,-5.123000144958496 0.0010000000474974513,-5.123000144958496 C2.8289999961853027,-5.123000144958496 5.122000217437744,-2.828000068664551 5.122000217437744,-0.003000000026077032z"></path></g><g opacity="1" transform="matrix(1,0,0,1,35.904998779296875,14.012999534606934)"><path fill="rgb(51,51,51)" fill-opacity="1" d=" M6.311999797821045,-0.0020000000949949026 C6.311999797821045,0.8379999995231628 5.61899995803833,1.5290000438690186 4.775000095367432,1.5290000438690186 C4.775000095367432,1.5290000438690186 -4.775000095367432,1.5290000438690186 -4.775000095367432,1.5290000438690186 C-5.618000030517578,1.5290000438690186 -6.311999797821045,0.8379999995231628 -6.311999797821045,-0.0020000000949949026 C-6.311999797821045,-0.8450000286102295 -5.618000030517578,-1.5290000438690186 -4.775000095367432,-1.5290000438690186 C-4.775000095367432,-1.5290000438690186 4.775000095367432,-1.5290000438690186 4.775000095367432,-1.5290000438690186 C5.61899995803833,-1.5290000438690186 6.311999797821045,-0.8450000286102295 6.311999797821045,-0.0020000000949949026z"></path></g></g><g transform="matrix(0.9781476259231567,-0.2079116851091385,0.2079116851091385,0.9781476259231567,308.62164306640625,292.1012268066406)" opacity="1" style="display: block;"><path fill="rgb(26,26,26)" fill-opacity="1" d=" M109.67401885986328,-50.76988983154297 C108.16703796386719,-51.043827056884766 106.61683654785156,-50.514305114746094 105.57499694824219,-49.34635925292969 C104.62042236328125,-48.11536407470703 104.3296890258789,-46.487266540527344 104.88044738769531,-44.992218017578125 C105.18409729003906,-44.21902084350586 111.94465637207031,-18.822649002075195 112.27415466308594,-16.964460372924805 C112.27415466308594,-16.964460372924805 112.3418197631836,-16.582876205444336 112.3418197631836,-16.582876205444336 C112.3418197631836,-16.582876205444336 112.38629913330078,-16.482934951782227 112.38629913330078,-16.482934951782227 C113.32526397705078,-14.373167991638184 116.92903900146484,-13.154233932495117 119.28752899169922,-15.383150100708008 C119.92459869384766,-16.001218795776367 136.30174255371094,-31.832313537597656 141.827392578125,-37.19178009033203 C141.827392578125,-37.19178009033203 142.40087890625,-37.748016357421875 142.40087890625,-37.748016357421875 C142.40087890625,-37.748016357421875 141.83871459960938,-37.180335998535156 141.83871459960938,-37.180335998535156 C142.81997680664062,-38.17123031616211 143.31185913085938,-39.55705642700195 143.09945678710938,-40.921260833740234 C143.09945678710938,-40.921260833740234 143.00880432128906,-41.5035285949707 143.00880432128906,-41.5035285949707 C143.00880432128906,-41.5035285949707 142.76531982421875,-42.038272857666016 142.76531982421875,-42.038272857666016 C142.21487426757812,-43.2472038269043 141.08480834960938,-44.16446304321289 139.72671508789062,-44.458866119384766 C130.06918334960938,-46.48744201660156 120.4117202758789,-48.5160026550293 110.7542495727539,-50.5445671081543 C110.7542495727539,-50.5445671081543 109.72982025146484,-50.75975036621094 109.72982025146484,-50.75975036621094 C109.72982025146484,-50.75975036621094 109.67401885986328,-50.76988983154297 109.67401885986328,-50.76988983154297z"></path></g><g transform="matrix(1,0,0,1,325,264)" opacity="1" style="display: block;"><g opacity="1" transform="matrix(1,0,0,1,36.45500183105469,-45.111000061035156)"><path stroke-linecap="butt" stroke-linejoin="miter" fill-opacity="0" stroke-miterlimit="4" stroke="rgb(26,26,26)" stroke-opacity="1" stroke-width="15" d=" M0,-59.62099838256836 C32.90482711791992,-59.62099838256836 59.62099838256836,-32.90482711791992 59.62099838256836,0 C59.62099838256836,3.818000078201294 59.26100158691406,7.553999900817871 58.57400131225586,11.17300033569336"></path><path stroke-linecap="butt" stroke-linejoin="miter" fill-opacity="0" stroke-miterlimit="4" stroke="rgb(26,26,26)" stroke-opacity="1" stroke-width="15" d=" M0,-59.62099838256836 C32.90482711791992,-59.62099838256836 59.62099838256836,-32.90482711791992 59.62099838256836,0 C59.62099838256836,3.818000078201294 59.26100158691406,7.553999900817871 58.57400131225586,11.17300033569336"></path></g></g></g></svg>
