<svg width="40" height="40" viewBox="0 0 40 40" fill="none" xmlns="http://www.w3.org/2000/svg">
<g filter="url(#filter0_d_7_328)">
<path d="M22.1388 4.63656L22.8055 4.29301L22.1388 4.63657L25.2705 10.7137C25.5512 11.2584 26.029 11.7547 26.5551 12.132C27.0818 12.5098 27.72 12.8135 28.3676 12.9135L34.0438 13.84L34.0483 13.8407C35.7291 14.1045 36.4993 14.7915 36.7099 15.4326C36.9185 16.0675 36.707 17.0557 35.5001 18.2267L31.0945 22.5013L31.6168 23.0396L31.0945 22.5013C30.6102 22.9712 30.2613 23.6221 30.0676 24.2838C29.8745 24.9432 29.8141 25.6868 29.9865 26.362L31.2591 31.6611L31.2593 31.6622C31.7466 33.6779 31.342 34.6984 30.8168 35.0723C30.2769 35.4567 29.1233 35.5168 27.2687 34.442L27.2652 34.4401L21.9618 31.4041C21.3402 31.0372 20.5642 30.8775 19.833 30.8775C19.1018 30.8775 18.3258 31.0372 17.7041 31.4041L12.4039 34.4382C12.4034 34.4385 12.4029 34.4388 12.4024 34.4391C10.5466 35.4891 9.38943 35.4339 8.84625 35.051C8.32473 34.6833 7.91908 33.6788 8.40661 31.6622L8.40688 31.6611L9.68081 26.3564L9.68274 26.3484L9.68449 26.3403C9.82255 25.704 9.76446 24.9722 9.58126 24.313C9.39849 23.6554 9.06651 22.9816 8.57145 22.5013L8.04918 23.0396L8.57144 22.5013L4.16579 18.2267C2.95608 17.053 2.74889 16.0786 2.95564 15.4532C3.16615 14.8164 3.93817 14.129 5.62502 13.8395L11.3006 12.9131C11.3008 12.9131 11.301 12.9131 11.3011 12.9131C11.9259 12.8119 12.5516 12.5052 13.0686 12.129C13.5852 11.753 14.062 11.2577 14.3424 10.7137L17.4741 4.63657L17.4808 4.62359L17.4869 4.61036C18.1994 3.08485 19.0723 2.57092 19.7467 2.57092C20.4334 2.57092 21.3469 3.09996 22.1388 4.63656Z" stroke="white" stroke-opacity="0.3" stroke-width="1.5" shape-rendering="crispEdges"/>
</g>
<defs>
<filter id="filter0_d_7_328" x="0.133789" y="0.820923" width="39.3984" height="38.2565" filterUnits="userSpaceOnUse" color-interpolation-filters="sRGB">
<feFlood flood-opacity="0" result="BackgroundImageFix"/>
<feColorMatrix in="SourceAlpha" type="matrix" values="0 0 0 0 0 0 0 0 0 0 0 0 0 0 0 0 0 0 127 0" result="hardAlpha"/>
<feOffset dy="1"/>
<feGaussianBlur stdDeviation="1"/>
<feComposite in2="hardAlpha" operator="out"/>
<feColorMatrix type="matrix" values="0 0 0 0 0 0 0 0 0 0 0 0 0 0 0 0 0 0 0.05 0"/>
<feBlend mode="normal" in2="BackgroundImageFix" result="effect1_dropShadow_7_328"/>
<feBlend mode="normal" in="SourceGraphic" in2="effect1_dropShadow_7_328" result="shape"/>
</filter>
</defs>
</svg>
