<svg width="28" height="28" viewBox="0 0 28 28" fill="none" xmlns="http://www.w3.org/2000/svg">
<path d="M25.6668 5.83325V8.16659C25.6668 10.3016 24.6985 11.4566 22.7502 11.6316C22.5635 11.6549 22.3652 11.6666 22.1668 11.6666L5.8335 11.6666C5.63516 11.6666 5.43683 11.6549 5.25016 11.6316C3.30183 11.4566 2.3335 10.3016 2.3335 8.16659L2.3335 5.83325C2.3335 3.49992 3.50016 2.33325 5.8335 2.33325L22.1668 2.33325C24.5002 2.33325 25.6668 3.49992 25.6668 5.83325Z" fill="url(#paint0_linear_1149_12210)"/>
<path d="M6.41667 13.125C5.775 13.125 5.25 13.65 5.25 14.2917L5.25 22.1667C5.25 24.5 5.83333 25.6667 8.75 25.6667H19.25C22.1667 25.6667 22.75 24.5 22.75 22.1667V14.2917C22.75 13.65 22.225 13.125 21.5833 13.125L6.41667 13.125ZM16.1233 18.375H11.8767C11.3983 18.375 11.0017 17.9783 11.0017 17.5C11.0017 17.0217 11.3983 16.625 11.8767 16.625H16.1233C16.6017 16.625 16.9983 17.0217 16.9983 17.5C16.9983 17.9783 16.6017 18.375 16.1233 18.375Z" fill="url(#paint1_linear_1149_12210)"/>
<defs>
<linearGradient id="paint0_linear_1149_12210" x1="14.0002" y1="2.33325" x2="14.0002" y2="11.6666" gradientUnits="userSpaceOnUse">
<stop stop-color="#FFEC88"/>
<stop offset="1" stop-color="#FFA95A"/>
</linearGradient>
<linearGradient id="paint1_linear_1149_12210" x1="14" y1="13.125" x2="14" y2="25.6667" gradientUnits="userSpaceOnUse">
<stop stop-color="#FFEC88"/>
<stop offset="1" stop-color="#FFA95A"/>
</linearGradient>
</defs>
</svg>
