<svg width="20" height="21" viewBox="0 0 20 21" fill="none" xmlns="http://www.w3.org/2000/svg">
<path d="M7.9502 13.7666L7.9502 9.31665L6.7002 10.7083" stroke="#FFA800" stroke-width="1.5" stroke-linecap="round" stroke-linejoin="round"/>
<path d="M8.3501 4.22506L10.0001 2.16675" stroke="#FFA800" stroke-width="1.5" stroke-linecap="round" stroke-linejoin="round"/>
<path d="M4.09181 6.99995C3.16681 8.23328 2.5918 9.75828 2.5918 11.4249C2.5918 15.5166 5.90848 18.8333 10.0001 18.8333C14.0918 18.8333 17.4085 15.5166 17.4085 11.4249C17.4085 7.33328 14.0918 4.0166 10.0001 4.0166C9.43348 4.0166 8.88347 4.09164 8.35013 4.21664" stroke="#FFA800" stroke-width="2" stroke-linecap="round" stroke-linejoin="round"/>
<path d="M11.6667 9.31665C12.5833 9.31665 13.3333 10.0667 13.3333 10.9833V12.1083C13.3333 13.025 12.5833 13.775 11.6667 13.775C10.75 13.775 10 13.025 10 12.1083V10.9833C10 10.0583 10.75 9.31665 11.6667 9.31665Z" stroke="#FFA800" stroke-width="1.5" stroke-linecap="round" stroke-linejoin="round"/>
</svg>
