<?xml version="1.0" encoding="utf-8"?>
<!-- Generator: Adobe Illustrator 28.0.0, SVG Export Plug-In . SVG Version: 6.00 Build 0)  -->
<svg version="1.1" id="Layer_1" xmlns="http://www.w3.org/2000/svg" xmlns:xlink="http://www.w3.org/1999/xlink" x="0px" y="0px"
	 viewBox="0 0 17 18" style="enable-background:new 0 0 17 18;" xml:space="preserve">
<style type="text/css">
	.st0{fill:#FFA800;}
	.st1{fill:none;stroke:#FFA800;}
</style>
<path class="st0" d="M10.4,9.7c-0.2,0-0.4-0.1-0.6-0.2C9.6,9.4,9.5,9.2,9.4,9.1C9.3,8.9,9.3,8.7,9.3,8.4c0-0.2,0.1-0.4,0.3-0.5
	c0.1-0.1,0.3-0.2,0.5-0.3c0.2,0,0.4,0,0.6,0.1c0.2,0.1,0.4,0.2,0.5,0.4c0.1,0.2,0.2,0.4,0.2,0.6c0,0.3-0.1,0.5-0.3,0.7
	C10.9,9.6,10.6,9.7,10.4,9.7z M15.5,6.4c-0.3-1.6-1.1-3.1-2.4-4.1c-1.3-1.1-2.8-1.6-4.5-1.6c-4.8,0-6.2,3.2-7.1,5.4
	C1.4,6.7,1.1,7.2,0.6,7.7C0.5,7.8,0.4,7.9,0.4,8c-0.1,0.1-0.1,0.3,0,0.4c0,0.1,0.1,0.3,0.2,0.4C0.6,8.9,0.8,9,0.9,9
	c1.7,0.1,3.4-0.1,5-0.8C5.9,8.4,5.8,8.6,5.9,8.9c0,0.2,0.1,0.4,0.3,0.6c0.2,0.1,0.3,0.2,0.6,0.3c0.2,0,0.4,0,0.6-0.1
	c0.2-0.1,0.4-0.2,0.5-0.4C7.9,9,8,8.8,7.9,8.5c0-0.2-0.1-0.4-0.3-0.6C7.5,7.8,7.3,7.7,7.1,7.6c1.4-0.8,2.5-1.8,3.4-3.1
	c0.1-0.1,0.1-0.2,0.1-0.2c0-0.1,0-0.2,0-0.3c0-0.1,0-0.2-0.1-0.3c0-0.1-0.1-0.1-0.2-0.2c-0.1-0.1-0.2-0.1-0.3-0.1
	c-0.1,0-0.2,0-0.3,0c-0.1,0-0.2,0.1-0.3,0.1C9.6,3.6,9.5,3.7,9.5,3.7C8.6,4.9,7.6,5.8,6.4,6.5c-1.2,0.7-2.6,1.1-4,1.1
	c0.1-0.3,0.3-0.6,0.4-1c0,0,0-0.1,0-0.1c0.9-2,1.9-4.5,5.8-4.5c1.4,0,2.7,0.5,3.7,1.4c1,0.9,1.7,2.2,1.8,3.5c0,0.1,0.1,0.3,0.2,0.4
	c0.1,0.1,0.2,0.2,0.4,0.2c0.3,0,0.5,0.2,0.6,0.4c0.2,0.2,0.2,0.5,0.2,0.7c0,0.3-0.1,0.5-0.3,0.7s-0.4,0.3-0.7,0.3
	c-0.1,0-0.1,0-0.2,0c-0.2,0-0.3,0-0.5,0.1c-0.1,0.1-0.3,0.2-0.3,0.4c-0.6,1.8-2.8,3.7-5,3.7c-2,0-3.9-1.6-4.7-3.2
	c-0.1-0.2-0.2-0.3-0.4-0.3c-0.2-0.1-0.4,0-0.5,0c-0.2,0.1-0.3,0.2-0.3,0.4c-0.1,0.2,0,0.4,0,0.5c0.7,1.3,1.8,2.4,3.2,3.2v2.1
	c0,0.2,0.1,0.4,0.2,0.5c0.1,0.1,0.3,0.2,0.5,0.2c0.2,0,0.4-0.1,0.5-0.2s0.2-0.3,0.2-0.5v-1.6c0.9,0.2,1.9,0.2,2.8,0v1.6
	c0,0.2,0.1,0.4,0.2,0.5c0.1,0.1,0.3,0.2,0.5,0.2c0.2,0,0.4-0.1,0.5-0.2c0.1-0.1,0.2-0.3,0.2-0.5v-2.1c1.4-0.8,2.6-2,3.3-3.4
	c0.5,0,1.1-0.3,1.5-0.6c0.4-0.4,0.7-0.9,0.8-1.4c0.1-0.5,0-1.1-0.3-1.6C16.4,7,16,6.6,15.5,6.4z"/>
<path class="st1" d="M10.4,9.7c-0.2,0-0.4-0.1-0.6-0.2C9.6,9.4,9.5,9.2,9.4,9.1C9.3,8.9,9.3,8.7,9.3,8.4c0-0.2,0.1-0.4,0.3-0.5
	c0.1-0.1,0.3-0.2,0.5-0.3c0.2,0,0.4,0,0.6,0.1c0.2,0.1,0.4,0.2,0.5,0.4c0.1,0.2,0.2,0.4,0.2,0.6c0,0.3-0.1,0.5-0.3,0.7
	C10.9,9.6,10.6,9.7,10.4,9.7z M15.5,6.4c-0.3-1.6-1.1-3.1-2.4-4.1c-1.3-1.1-2.8-1.6-4.5-1.6c-4.8,0-6.2,3.2-7.1,5.4
	C1.4,6.7,1.1,7.2,0.6,7.7C0.5,7.8,0.4,7.9,0.4,8c-0.1,0.1-0.1,0.3,0,0.4c0,0.1,0.1,0.3,0.2,0.4C0.6,8.9,0.8,9,0.9,9
	c1.7,0.1,3.4-0.1,5-0.8C5.9,8.4,5.8,8.6,5.9,8.9c0,0.2,0.1,0.4,0.3,0.6c0.2,0.1,0.3,0.2,0.6,0.3c0.2,0,0.4,0,0.6-0.1
	c0.2-0.1,0.4-0.2,0.5-0.4C7.9,9,8,8.8,7.9,8.5c0-0.2-0.1-0.4-0.3-0.6C7.5,7.8,7.3,7.7,7.1,7.6c1.4-0.8,2.5-1.8,3.4-3.1
	c0.1-0.1,0.1-0.2,0.1-0.2c0-0.1,0-0.2,0-0.3c0-0.1,0-0.2-0.1-0.3c0-0.1-0.1-0.1-0.2-0.2c-0.1-0.1-0.2-0.1-0.3-0.1
	c-0.1,0-0.2,0-0.3,0c-0.1,0-0.2,0.1-0.3,0.1C9.6,3.6,9.5,3.7,9.5,3.7C8.6,4.9,7.6,5.8,6.4,6.5c-1.2,0.7-2.6,1.1-4,1.1
	c0.1-0.3,0.3-0.6,0.4-1c0,0,0-0.1,0-0.1c0.9-2,1.9-4.5,5.8-4.5c1.4,0,2.7,0.5,3.7,1.4c1,0.9,1.7,2.2,1.8,3.5c0,0.1,0.1,0.3,0.2,0.4
	c0.1,0.1,0.2,0.2,0.4,0.2c0.3,0,0.5,0.2,0.6,0.4c0.2,0.2,0.2,0.5,0.2,0.7c0,0.3-0.1,0.5-0.3,0.7s-0.4,0.3-0.7,0.3
	c-0.1,0-0.1,0-0.2,0c-0.2,0-0.3,0-0.5,0.1c-0.1,0.1-0.3,0.2-0.3,0.4c-0.6,1.8-2.8,3.7-5,3.7c-2,0-3.9-1.6-4.7-3.2
	c-0.1-0.2-0.2-0.3-0.4-0.3c-0.2-0.1-0.4,0-0.5,0c-0.2,0.1-0.3,0.2-0.3,0.4c-0.1,0.2,0,0.4,0,0.5c0.7,1.3,1.8,2.4,3.2,3.2v2.1
	c0,0.2,0.1,0.4,0.2,0.5c0.1,0.1,0.3,0.2,0.5,0.2c0.2,0,0.4-0.1,0.5-0.2s0.2-0.3,0.2-0.5v-1.6c0.9,0.2,1.9,0.2,2.8,0v1.6
	c0,0.2,0.1,0.4,0.2,0.5c0.1,0.1,0.3,0.2,0.5,0.2c0.2,0,0.4-0.1,0.5-0.2c0.1-0.1,0.2-0.3,0.2-0.5v-2.1c1.4-0.8,2.6-2,3.3-3.4
	c0.5,0,1.1-0.3,1.5-0.6c0.4-0.4,0.7-0.9,0.8-1.4c0.1-0.5,0-1.1-0.3-1.6C16.4,7,16,6.6,15.5,6.4z"/>
</svg>
