<svg width="42" height="45" viewBox="0 0 42 45" fill="none" xmlns="http://www.w3.org/2000/svg">
<g filter="url(#filter0_d_2202_7799)">
<path d="M20.9999 3.33325C11.8166 3.33325 4.33325 10.8166 4.33325 19.9999C4.33325 29.1833 11.8166 36.6666 20.9999 36.6666C30.1833 36.6666 37.6666 29.1833 37.6666 19.9999C37.6666 10.8166 30.1833 3.33325 20.9999 3.33325ZM26.5999 23.8333C27.0833 24.3166 27.0833 25.1166 26.5999 25.5999C26.3499 25.8499 26.0333 25.9666 25.7166 25.9666C25.3999 25.9666 25.0833 25.8499 24.8333 25.5999L20.9999 21.7666L17.1666 25.5999C16.9166 25.8499 16.5999 25.9666 16.2833 25.9666C15.9666 25.9666 15.6499 25.8499 15.3999 25.5999C14.9166 25.1166 14.9166 24.3166 15.3999 23.8333L19.2333 19.9999L15.3999 16.1666C14.9166 15.6833 14.9166 14.8833 15.3999 14.3999C15.8833 13.9166 16.6833 13.9166 17.1666 14.3999L20.9999 18.2333L24.8333 14.3999C25.3166 13.9166 26.1166 13.9166 26.5999 14.3999C27.0833 14.8833 27.0833 15.6833 26.5999 16.1666L22.7666 19.9999L26.5999 23.8333Z" fill="url(#paint0_linear_2202_7799)"/>
</g>
<defs>
<filter id="filter0_d_2202_7799" x="-3" y="0" width="48" height="48" filterUnits="userSpaceOnUse" color-interpolation-filters="sRGB">
<feFlood flood-opacity="0" result="BackgroundImageFix"/>
<feColorMatrix in="SourceAlpha" type="matrix" values="0 0 0 0 0 0 0 0 0 0 0 0 0 0 0 0 0 0 127 0" result="hardAlpha"/>
<feOffset dy="4"/>
<feGaussianBlur stdDeviation="2"/>
<feComposite in2="hardAlpha" operator="out"/>
<feColorMatrix type="matrix" values="0 0 0 0 0 0 0 0 0 0 0 0 0 0 0 0 0 0 0.25 0"/>
<feBlend mode="normal" in2="BackgroundImageFix" result="effect1_dropShadow_2202_7799"/>
<feBlend mode="normal" in="SourceGraphic" in2="effect1_dropShadow_2202_7799" result="shape"/>
</filter>
<linearGradient id="paint0_linear_2202_7799" x1="6.8739" y1="38.1372" x2="38.6521" y2="34.1117" gradientUnits="userSpaceOnUse">
<stop stop-color="#E22D79"/>
<stop offset="1" stop-color="#FB6779"/>
</linearGradient>
</defs>
</svg>
