<svg xmlns="http://www.w3.org/2000/svg" fill="none" viewBox="4.78 2 19.44 20">
<g filter="url(#filter0_d_881_2896)">
<path d="M13.75 18.25H11.5C10.4 18.25 9.5 19.15 9.5 20.25V20.5H8.5C8.09 20.5 7.75 20.84 7.75 21.25C7.75 21.66 8.09 22 8.5 22H20.5C20.91 22 21.25 21.66 21.25 21.25C21.25 20.84 20.91 20.5 20.5 20.5H19.5V20.25C19.5 19.15 18.6 18.25 17.5 18.25H15.25V15.96C15 15.99 14.75 16 14.5 16C14.25 16 14 15.99 13.75 15.96V18.25Z" fill="url(#paint0_linear_881_2896)"/>
<path d="M20.9803 11.64C21.6403 11.39 22.2203 10.98 22.6803 10.52C23.6103 9.49 24.2203 8.26 24.2203 6.82C24.2203 5.38 23.0903 4.25 21.6503 4.25H21.0903C20.4403 2.92 19.0803 2 17.5003 2H11.5003C9.92027 2 8.56027 2.92 7.91027 4.25H7.35027C5.91027 4.25 4.78027 5.38 4.78027 6.82C4.78027 8.26 5.39027 9.49 6.32027 10.52C6.78027 10.98 7.36027 11.39 8.02027 11.64C9.06027 14.2 11.5603 16 14.5003 16C17.4403 16 19.9403 14.2 20.9803 11.64ZM17.3403 8.45L16.7203 9.21C16.6203 9.32 16.5503 9.54 16.5603 9.69L16.6203 10.67C16.6603 11.27 16.2303 11.58 15.6703 11.36L14.7603 11C14.6203 10.95 14.3803 10.95 14.2403 11L13.3303 11.36C12.7703 11.58 12.3403 11.27 12.3803 10.67L12.4403 9.69C12.4503 9.54 12.3803 9.32 12.2803 9.21L11.6603 8.45C11.2703 7.99 11.4403 7.48 12.0203 7.33L12.9703 7.09C13.1203 7.05 13.3003 6.91 13.3803 6.78L13.9103 5.96C14.2403 5.45 14.7603 5.45 15.0903 5.96L15.6203 6.78C15.7003 6.91 15.8803 7.05 16.0303 7.09L16.9803 7.33C17.5603 7.48 17.7303 7.99 17.3403 8.45Z" fill="url(#paint1_linear_881_2896)"/>
</g>
<defs>
<filter id="filter0_d_881_2896" x="0.780273" y="2" width="27.4399" height="27.9999" filterUnits="userSpaceOnUse" color-interpolation-filters="sRGB">
<feFlood flood-opacity="0" result="BackgroundImageFix"/>
<feColorMatrix in="SourceAlpha" type="matrix" values="0 0 0 0 0 0 0 0 0 0 0 0 0 0 0 0 0 0 127 0" result="hardAlpha"/>
<feOffset dy="4"/>
<feGaussianBlur stdDeviation="2"/>
<feComposite in2="hardAlpha" operator="out"/>
<feColorMatrix type="matrix" values="0 0 0 0 0 0 0 0 0 0 0 0 0 0 0 0 0 0 0.25 0"/>
<feBlend mode="normal" in2="BackgroundImageFix" result="effect1_dropShadow_881_2896"/>
<feBlend mode="normal" in="SourceGraphic" in2="effect1_dropShadow_881_2896" result="shape"/>
</filter>
<linearGradient id="paint0_linear_881_2896" x1="14.5" y1="15.96" x2="14.5" y2="22" gradientUnits="userSpaceOnUse">
<stop stop-color="#FFEC88"/>
<stop offset="1" stop-color="#FFA800"/>
</linearGradient>
<linearGradient id="paint1_linear_881_2896" x1="14.5003" y1="2" x2="14.5003" y2="16" gradientUnits="userSpaceOnUse">
<stop stop-color="#FFEC88"/>
<stop offset="1" stop-color="#FFA800"/>
</linearGradient>
</defs>
</svg>