<svg width="23" height="22" viewBox="0 0 23 22" fill="none" xmlns="http://www.w3.org/2000/svg">
<path d="M11.2885 15.9057C12.0956 15.9057 12.7498 15.2514 12.7498 14.4444C12.7498 13.6373 12.0956 12.983 11.2885 12.983C10.4814 12.983 9.82715 13.6373 9.82715 14.4444C9.82715 15.2514 10.4814 15.9057 11.2885 15.9057Z" fill="#2B1A42"/>
<path d="M16.9182 8.89498V7.77433C16.9182 5.35372 16.3354 2.14417 11.288 2.14417C6.24056 2.14417 5.65782 5.35372 5.65782 7.77433V8.89498C3.14756 9.20877 2.32275 10.4818 2.32275 13.6107V15.2782C2.32275 18.954 3.44341 20.0746 7.11915 20.0746H15.4568C19.1326 20.0746 20.2532 18.954 20.2532 15.2782V13.6107C20.2532 10.4818 19.4284 9.20877 16.9182 8.89498ZM11.288 17.152C9.79079 17.152 8.58049 15.9327 8.58049 14.4445C8.58049 12.9473 9.79976 11.737 11.288 11.737C12.7762 11.737 13.9955 12.9562 13.9955 14.4445C13.9955 15.9417 12.7852 17.152 11.288 17.152ZM7.11915 8.8143C7.04743 8.8143 6.98467 8.8143 6.91295 8.8143V7.77433C6.91295 5.14752 7.65707 3.3993 11.288 3.3993C14.9189 3.3993 15.663 5.14752 15.663 7.77433V8.82326C15.5913 8.82326 15.5285 8.82326 15.4568 8.82326H7.11915V8.8143Z" fill="#2B1A42"/>
</svg>
