<svg xmlns="http://www.w3.org/2000/svg" fill="none" viewBox="3.33 3.8 33.33 32.43">
<path d="M13.9834 9.1833L13.9834 26.1166C13.9834 26.7833 14.1834 27.4333 14.5501 27.9833L19.1001 34.75C19.8167 35.8333 21.6001 36.6 23.1167 36.0333C24.7501 35.4833 25.8334 33.65 25.4834 32.0166L24.6167 26.5666C24.5501 26.0666 24.6834 25.6166 24.9667 25.2666C25.2501 24.95 25.6667 24.75 26.1167 24.75L32.9667 24.75C34.2834 24.75 35.4167 24.2166 36.0834 23.2833C36.7167 22.3833 36.8334 21.2166 36.4167 20.0333L32.3167 7.54996C31.8001 5.4833 29.5501 3.79996 27.3167 3.79996H20.8167C19.7001 3.79996 18.1334 4.1833 17.4167 4.89996L15.2834 6.54996C14.4667 7.16663 13.9834 8.14996 13.9834 9.1833Z" fill="url(#paint0_linear_17_1456)"/>
<path d="M8.68325 29.3665H6.96659C4.38325 29.3665 3.33325 28.3665 3.33325 25.8998L3.33325 9.13312C3.33325 6.66645 4.38325 5.66645 6.96659 5.66645H8.68325C11.2666 5.66645 12.3166 6.66645 12.3166 9.13312L12.3166 25.8998C12.3166 28.3665 11.2666 29.3665 8.68325 29.3665Z" fill="url(#paint1_linear_17_1456)"/>
<defs>
<linearGradient id="paint0_linear_17_1456" x1="15.7119" y1="2.36944" x2="37.5082" y2="4.30051" gradientUnits="userSpaceOnUse">
<stop stop-color="#D30000"/>
<stop offset="1" stop-color="#FB6767"/>
</linearGradient>
<linearGradient id="paint1_linear_17_1456" x1="4.01796" y1="4.62087" x2="12.6996" y2="5.03771" gradientUnits="userSpaceOnUse">
<stop stop-color="#D30000"/>
<stop offset="1" stop-color="#FB6767"/>
</linearGradient>
</defs>
</svg>