<svg xmlns="http://www.w3.org/2000/svg" fill="none" viewBox="0 -2 44 46">
<mask id="path-1-inside-1_2827_3277" fill="white">
<path d="M0 20C0 8.9543 8.95431 0 20 0L23.9994 0C35.0451 0 43.9994 8.95431 43.9994 20L43.9994 24C43.9994 35.0457 35.0451 44 23.9994 44L20 44C8.95432 44 0 35.0457 0 24L0 20Z"/>
</mask>
<path d="M0 20C0 8.9543 8.95431 0 20 0L23.9994 0C35.0451 0 43.9994 8.95431 43.9994 20L43.9994 24C43.9994 35.0457 35.0451 44 23.9994 44L20 44C8.95432 44 0 35.0457 0 24L0 20Z" fill="url(#paint0_linear_2827_3277)"/>
<path d="M0 19.9997C0 7.84961 9.84961 -2 21.9997 -2C34.1498 -2 43.9994 7.84961 43.9994 19.9997V20C43.9994 10.0589 35.0451 2 23.9994 2L20 2C8.95431 2 0 10.0589 0 20L0 19.9997ZM43.9994 44L0 44L43.9994 44ZM0 44L0 0L0 44ZM43.9994 0L43.9994 44L43.9994 0Z" fill="white" fill-opacity="0.5" mask="url(#path-1-inside-1_2827_3277)"/>
<g filter="url(#filter0_d_2827_3277)">
<path fill-rule="evenodd" clip-rule="evenodd" d="M22.0338 10.2304C21.0427 9.74274 19.8437 10.1508 19.3557 11.1417L17.1467 15.6273C16.809 16.3132 17.0913 17.1429 17.7774 17.4805V17.4805C18.4634 17.818 18.7458 18.6477 18.408 19.3336L14.1666 27.9464C13.6786 28.9373 14.0865 30.1359 15.0776 30.6235L24.2114 35.1171C25.2025 35.6047 26.4016 35.1967 26.8896 34.2058L34.6439 18.4593C35.0799 17.574 34.7155 16.5032 33.83 16.0675L32.2402 15.2854C32.2327 15.2817 32.2296 15.2726 32.2333 15.2651V15.2651C32.237 15.2576 32.2339 15.2486 32.2264 15.2449L22.0338 10.2304Z" fill="#D1B883"/>
</g>
<g filter="url(#filter1_d_2827_3277)">
<rect width="20.2728" height="17.6405" transform="matrix(0.441786 -0.89712 0.897289 0.441444 8 26.187)" fill="#FFF2D2"/>
</g>
<g filter="url(#filter2_d_2827_3277)">
<rect width="19.6471" height="17.6405" transform="matrix(0.441786 -0.89712 0.897289 0.441444 8.89771 25.626)" fill="#FFF7E2"/>
</g>
<g filter="url(#filter3_d_2827_3277)">
<rect width="18.8963" height="17.6405" transform="matrix(0.441786 -0.89712 0.897289 0.441444 9.84985 24.9521)" fill="white"/>
</g>
<g filter="url(#filter4_d_2827_3277)">
<path fill-rule="evenodd" clip-rule="evenodd" d="M22.5864 9.10758C21.5953 8.61997 20.3962 9.028 19.9083 10.0189L17.5885 14.7296C17.251 15.415 17.5331 16.2441 18.2187 16.5814V16.5814C18.9042 16.9186 19.1864 17.7477 18.8488 18.4332L15.2765 25.6874C14.7885 26.6783 15.1964 27.8769 16.1875 28.3645L25.3233 32.8591C26.3144 33.3467 27.5135 32.9387 28.0015 31.9477L35.2099 17.3097C35.6459 16.4244 35.2815 15.3534 34.396 14.9178L32.7926 14.129C32.7926 14.1289 32.7926 14.1289 32.7926 14.1289V14.1289C32.7926 14.1288 32.7926 14.1288 32.7925 14.1287L22.5864 9.10758Z" fill="url(#paint1_linear_2827_3277)"/>
</g>
<defs>
<filter id="filter0_d_2827_3277" x="9.96045" y="10.0244" width="28.8677" height="33.2986" filterUnits="userSpaceOnUse" color-interpolation-filters="sRGB">
<feFlood flood-opacity="0" result="BackgroundImageFix"/>
<feColorMatrix in="SourceAlpha" type="matrix" values="0 0 0 0 0 0 0 0 0 0 0 0 0 0 0 0 0 0 127 0" result="hardAlpha"/>
<feOffset dy="4"/>
<feGaussianBlur stdDeviation="2"/>
<feComposite in2="hardAlpha" operator="out"/>
<feColorMatrix type="matrix" values="0 0 0 0 0 0 0 0 0 0 0 0 0 0 0 0 0 0 0.05 0"/>
<feBlend mode="normal" in2="BackgroundImageFix" result="effect1_dropShadow_2827_3277"/>
<feBlend mode="normal" in="SourceGraphic" in2="effect1_dropShadow_2827_3277" result="shape"/>
</filter>
<filter id="filter1_d_2827_3277" x="4" y="7.99976" width="32.7849" height="33.9746" filterUnits="userSpaceOnUse" color-interpolation-filters="sRGB">
<feFlood flood-opacity="0" result="BackgroundImageFix"/>
<feColorMatrix in="SourceAlpha" type="matrix" values="0 0 0 0 0 0 0 0 0 0 0 0 0 0 0 0 0 0 127 0" result="hardAlpha"/>
<feOffset dy="4"/>
<feGaussianBlur stdDeviation="2"/>
<feComposite in2="hardAlpha" operator="out"/>
<feColorMatrix type="matrix" values="0 0 0 0 0 0 0 0 0 0 0 0 0 0 0 0 0 0 0.05 0"/>
<feBlend mode="normal" in2="BackgroundImageFix" result="effect1_dropShadow_2827_3277"/>
<feBlend mode="normal" in="SourceGraphic" in2="effect1_dropShadow_2827_3277" result="shape"/>
</filter>
<filter id="filter2_d_2827_3277" x="4.89771" y="8.00024" width="32.5085" height="33.4131" filterUnits="userSpaceOnUse" color-interpolation-filters="sRGB">
<feFlood flood-opacity="0" result="BackgroundImageFix"/>
<feColorMatrix in="SourceAlpha" type="matrix" values="0 0 0 0 0 0 0 0 0 0 0 0 0 0 0 0 0 0 127 0" result="hardAlpha"/>
<feOffset dy="4"/>
<feGaussianBlur stdDeviation="2"/>
<feComposite in2="hardAlpha" operator="out"/>
<feColorMatrix type="matrix" values="0 0 0 0 0 0 0 0 0 0 0 0 0 0 0 0 0 0 0.05 0"/>
<feBlend mode="normal" in2="BackgroundImageFix" result="effect1_dropShadow_2827_3277"/>
<feBlend mode="normal" in="SourceGraphic" in2="effect1_dropShadow_2827_3277" result="shape"/>
</filter>
<filter id="filter3_d_2827_3277" x="5.84985" y="8" width="32.1768" height="32.7395" filterUnits="userSpaceOnUse" color-interpolation-filters="sRGB">
<feFlood flood-opacity="0" result="BackgroundImageFix"/>
<feColorMatrix in="SourceAlpha" type="matrix" values="0 0 0 0 0 0 0 0 0 0 0 0 0 0 0 0 0 0 127 0" result="hardAlpha"/>
<feOffset dy="4"/>
<feGaussianBlur stdDeviation="2"/>
<feComposite in2="hardAlpha" operator="out"/>
<feColorMatrix type="matrix" values="0 0 0 0 0 0 0 0 0 0 0 0 0 0 0 0 0 0 0.05 0"/>
<feBlend mode="normal" in2="BackgroundImageFix" result="effect1_dropShadow_2827_3277"/>
<feBlend mode="normal" in="SourceGraphic" in2="effect1_dropShadow_2827_3277" result="shape"/>
</filter>
<filter id="filter4_d_2827_3277" x="11.0703" y="4.90161" width="28.3237" height="32.1633" filterUnits="userSpaceOnUse" color-interpolation-filters="sRGB">
<feFlood flood-opacity="0" result="BackgroundImageFix"/>
<feColorMatrix in="SourceAlpha" type="matrix" values="0 0 0 0 0 0 0 0 0 0 0 0 0 0 0 0 0 0 127 0" result="hardAlpha"/>
<feOffset/>
<feGaussianBlur stdDeviation="2"/>
<feComposite in2="hardAlpha" operator="out"/>
<feColorMatrix type="matrix" values="0 0 0 0 0 0 0 0 0 0 0 0 0 0 0 0 0 0 0.1 0"/>
<feBlend mode="normal" in2="BackgroundImageFix" result="effect1_dropShadow_2827_3277"/>
<feBlend mode="normal" in="SourceGraphic" in2="effect1_dropShadow_2827_3277" result="shape"/>
</filter>
<linearGradient id="paint0_linear_2827_3277" x1="21.9997" y1="0" x2="21.9997" y2="44" gradientUnits="userSpaceOnUse">
<stop stop-color="#FE9C42"/>
<stop offset="1" stop-color="#E25100"/>
</linearGradient>
<linearGradient id="paint1_linear_2827_3277" x1="16.351" y1="17.2422" x2="31.5558" y2="24.7298" gradientUnits="userSpaceOnUse">
<stop stop-color="#FFEC88"/>
<stop offset="1" stop-color="#FFA95A"/>
</linearGradient>
</defs>
</svg>