<svg width="100" height="52" viewBox="0 0 100 52" fill="none" xmlns="http://www.w3.org/2000/svg">
<g filter="url(#filter0_bd_1149_11817)">
<mask id="path-1-inside-1_1149_11817" fill="white">
<path d="M4.27832 20C4.27832 8.9543 13.2326 0 24.2783 0L75.2778 0C86.3235 0 95.2777 8.95431 95.2777 20V24C95.2777 35.0457 86.3234 44 75.2777 44L24.2783 44C13.2326 44 4.27832 35.0457 4.27832 24V20Z"/>
</mask>
<path d="M4.27832 20C4.27832 8.9543 13.2326 0 24.2783 0L75.2778 0C86.3235 0 95.2777 8.95431 95.2777 20V24C95.2777 35.0457 86.3234 44 75.2777 44L24.2783 44C13.2326 44 4.27832 35.0457 4.27832 24V20Z" fill="url(#paint0_linear_1149_11817)" shape-rendering="crispEdges"/>
<path d="M4.27832 20C4.27832 7.84974 14.1281 -2 26.2783 -2L73.2777 -2C85.428 -2 95.2777 7.84974 95.2777 20C95.2777 10.0589 86.3234 2 75.2777 2L24.2783 2C13.2326 2 4.27832 10.0589 4.27832 20ZM95.2777 44L4.27832 44L95.2777 44ZM4.27832 44L4.27832 0L4.27832 44ZM95.2777 0V44V0Z" fill="white" fill-opacity="0.5" mask="url(#path-1-inside-1_1149_11817)"/>
<path d="M15.5596 14.2109V23.7656C15.7106 23.9635 15.9215 24.1224 16.1924 24.2422C16.4684 24.3568 16.8512 24.4141 17.3408 24.4141H17.3486V26.5H17.3408C16.5075 26.5 15.8434 26.3776 15.3486 26.1328C14.859 25.8828 14.5075 25.5365 14.2939 25.0938C14.0804 24.6458 13.9736 24.1276 13.9736 23.5391V20.3125C13.9736 19.3646 13.9398 18.474 13.8721 17.6406C13.8096 16.8021 13.7106 16.0417 13.5752 15.3594L15.5596 14.2109ZM20.0283 18.3281C20.5544 18.5156 21.083 18.7083 21.6143 18.9062C22.1455 19.099 22.6351 19.2865 23.083 19.4688C24.2653 19.9479 25.182 20.4531 25.833 20.9844C26.4893 21.5156 26.8174 22.1719 26.8174 22.9531C26.8174 23.1615 26.7835 23.4167 26.7158 23.7188C26.6481 24.0156 26.5622 24.2865 26.458 24.5312L25.5674 26.6953C24.5465 26.7214 23.596 26.6667 22.7158 26.5312C21.8408 26.3958 21.0309 26.1615 20.2861 25.8281C19.8747 26.0312 19.4163 26.1953 18.9111 26.3203C18.4111 26.4401 17.8929 26.5 17.3564 26.5C17.2679 26.5 17.1976 26.4635 17.1455 26.3906C17.0934 26.3125 17.0674 26.1641 17.0674 25.9453V24.9688C17.0674 24.7448 17.096 24.5964 17.1533 24.5234C17.2054 24.4505 17.2731 24.4141 17.3564 24.4141C17.695 24.4141 17.9658 24.4062 18.1689 24.3906C18.3773 24.375 18.5518 24.3542 18.6924 24.3281C18.2809 23.8906 18.0752 23.3776 18.0752 22.7891C18.0752 22.237 18.1924 21.6615 18.4268 21.0625C18.6663 20.4635 19.0049 19.9479 19.4424 19.5156L20.0283 18.3281ZM20.5986 24.0234C21.2184 23.7682 21.6611 23.5 21.9268 23.2188C22.1924 22.9375 22.3252 22.6094 22.3252 22.2344C22.3252 21.8906 22.2419 21.5781 22.0752 21.2969C21.9137 21.0156 21.7028 20.7917 21.4424 20.625C21.1872 20.4583 20.9137 20.375 20.6221 20.375C20.32 20.375 20.0439 20.4635 19.7939 20.6406C19.5492 20.8125 19.3538 21.0391 19.208 21.3203C19.0674 21.6016 18.9971 21.9062 18.9971 22.2344C18.9971 22.6302 19.1247 22.9688 19.3799 23.25C19.6403 23.526 20.0465 23.7839 20.5986 24.0234ZM22.1533 24.4375C22.7419 24.5677 23.2757 24.6667 23.7549 24.7344C24.234 24.7969 24.7236 24.8359 25.2236 24.8516C25.5205 24.237 25.6585 23.7318 25.6377 23.3359C25.6169 22.9401 25.4111 22.5859 25.0205 22.2734C24.6299 21.9557 24.0283 21.6172 23.2158 21.2578C23.2627 21.4922 23.2861 21.7161 23.2861 21.9297C23.2861 22.8516 22.9085 23.6875 22.1533 24.4375ZM33.6533 24.0156L31.3096 19.3047L32.9268 17.7578L35.3018 24.0078C35.6559 24.2786 36.1794 24.4141 36.8721 24.4141H36.8799V26.5H36.8721C36.1481 26.5 35.5934 26.4115 35.208 26.2344C34.8278 26.0573 34.5179 25.7474 34.2783 25.3047C33.8981 25.7474 33.4762 26.0781 33.0127 26.2969C32.5544 26.5104 31.9788 26.6172 31.2861 26.6172C30.7028 26.6172 30.1663 26.5547 29.6768 26.4297C29.1872 26.3047 28.6663 26.0964 28.1143 25.8047L28.6064 23.9922C29.4085 24.3464 30.3018 24.5234 31.2861 24.5234C32.1924 24.5234 32.9814 24.3542 33.6533 24.0156ZM38.8643 16.7188C39.1143 16.8177 39.3617 16.9557 39.6064 17.1328C39.8512 17.3099 40.0934 17.5208 40.333 17.7656C40.1663 18.0052 39.9945 18.2474 39.8174 18.4922C39.6455 18.7318 39.4684 18.9766 39.2861 19.2266C38.8486 18.8255 38.3643 18.4818 37.833 18.1953C38.0101 17.9453 38.182 17.7005 38.3486 17.4609C38.5205 17.2161 38.6924 16.9688 38.8643 16.7188ZM36.8877 26.5C36.7887 26.5 36.7158 26.4583 36.6689 26.375C36.6221 26.2917 36.5986 26.1484 36.5986 25.9453V24.9688C36.5986 24.7656 36.6221 24.6224 36.6689 24.5391C36.7158 24.4557 36.7887 24.4141 36.8877 24.4141C37.3929 24.4141 37.8018 24.3672 38.1143 24.2734C38.432 24.1797 38.6846 24.0156 38.8721 23.7812C39.0648 23.5417 39.221 23.2109 39.3408 22.7891C39.4606 22.362 39.5778 21.8151 39.6924 21.1484L40.9658 21.3047C40.9294 21.5859 40.8981 21.8516 40.8721 22.1016C40.8512 22.3516 40.8408 22.5781 40.8408 22.7812C40.8408 23.2812 40.9893 23.6797 41.2861 23.9766C41.5882 24.2682 42.07 24.4141 42.7314 24.4141H42.7393V26.5H42.7314C41.945 26.5 41.3356 26.3359 40.9033 26.0078C40.471 25.6745 40.1559 25.1536 39.958 24.4453C39.7028 25.1536 39.3174 25.6745 38.8018 26.0078C38.2913 26.3359 37.6533 26.5 36.8877 26.5ZM51.9111 26.625C51.2653 26.625 50.7601 26.4453 50.3955 26.0859C50.0309 25.7214 49.8148 25.2005 49.7471 24.5234C49.5856 25.1901 49.2861 25.7083 48.8486 26.0781C48.4163 26.4427 47.9242 26.625 47.3721 26.625C46.8044 26.625 46.3382 26.4453 45.9736 26.0859C45.609 25.7214 45.3851 25.2005 45.3018 24.5234C45.0622 25.2005 44.7158 25.7005 44.2627 26.0234C43.8096 26.3411 43.3044 26.5 42.7471 26.5C42.6481 26.5 42.5752 26.4583 42.5283 26.375C42.4814 26.2917 42.458 26.1484 42.458 25.9453V24.9688C42.458 24.7656 42.4814 24.6224 42.5283 24.5391C42.5752 24.4557 42.6481 24.4141 42.7471 24.4141C43.2158 24.4141 43.5908 24.3177 43.8721 24.125C44.1585 23.9323 44.3877 23.612 44.5596 23.1641C44.7367 22.7161 44.8929 22.112 45.0283 21.3516L46.2705 21.5156C46.234 21.8125 46.2028 22.1198 46.1768 22.4375C46.1559 22.75 46.1455 22.9974 46.1455 23.1797C46.1455 23.6797 46.2367 24.0391 46.4189 24.2578C46.6064 24.4714 46.9398 24.5781 47.4189 24.5781C47.7783 24.5781 48.0648 24.5026 48.2783 24.3516C48.4919 24.1953 48.6689 23.9219 48.8096 23.5312C48.9502 23.1354 49.0856 22.5807 49.2158 21.8672H50.5127C50.4867 22.0443 50.4606 22.2865 50.4346 22.5938C50.4137 22.901 50.4033 23.1536 50.4033 23.3516C50.4033 23.8255 50.5023 24.1484 50.7002 24.3203C50.9033 24.487 51.2861 24.5703 51.8486 24.5703C52.2393 24.5703 52.5335 24.5312 52.7314 24.4531C52.9294 24.3698 53.1221 24.2188 53.3096 24C53.2106 23.526 53.083 23.0677 52.9268 22.625C52.7705 22.1771 52.583 21.7578 52.3643 21.3672L53.7158 20C53.9189 20.4375 54.0882 20.9375 54.2236 21.5C54.359 22.0573 54.4268 22.6901 54.4268 23.3984C54.4268 23.7682 54.3721 24.1458 54.2627 24.5312C54.1533 24.9115 53.958 25.3776 53.6768 25.9297C53.3903 26.1641 53.1117 26.3385 52.8408 26.4531C52.5752 26.5677 52.2653 26.625 51.9111 26.625Z" fill="black"/>
<g filter="url(#filter1_d_1149_11817)">
<path fill-rule="evenodd" clip-rule="evenodd" d="M73.3119 10.2304C72.3208 9.74274 71.1217 10.1508 70.6338 11.1417L68.4248 15.6273C68.087 16.3132 68.3694 17.1429 69.0554 17.4805C69.7415 17.818 70.0238 18.6477 69.6861 19.3336L65.4447 27.9464C64.9567 28.9373 65.3646 30.1359 66.3557 30.6235L75.4895 35.1171C76.4806 35.6047 77.6797 35.1967 78.1676 34.2058L85.922 18.4593C86.3579 17.574 85.9935 16.5032 85.108 16.0675L83.5183 15.2854C83.5108 15.2817 83.5077 15.2726 83.5114 15.2651C83.5151 15.2576 83.512 15.2486 83.5045 15.2449L73.3119 10.2304Z" fill="#D1B883"/>
</g>
<g filter="url(#filter2_d_1149_11817)">
<rect width="20.2728" height="17.6405" transform="matrix(0.441786 -0.89712 0.897289 0.441444 59.2783 26.187)" fill="#FFF2D2"/>
</g>
<g filter="url(#filter3_d_1149_11817)">
<rect width="19.6471" height="17.6405" transform="matrix(0.441786 -0.89712 0.897289 0.441444 60.1763 25.626)" fill="#FFF7E2"/>
</g>
<g filter="url(#filter4_d_1149_11817)">
<rect width="18.8963" height="17.6405" transform="matrix(0.441786 -0.89712 0.897289 0.441444 61.1279 24.9521)" fill="white"/>
</g>
<g filter="url(#filter5_d_1149_11817)">
<path fill-rule="evenodd" clip-rule="evenodd" d="M73.8647 9.10758C72.8736 8.61997 71.6746 9.028 71.1866 10.0189L68.8668 14.7296C68.5293 15.415 68.8114 16.2441 69.497 16.5814C70.1826 16.9186 70.4647 17.7477 70.1271 18.4332L66.5548 25.6874C66.0668 26.6783 66.4747 27.8769 67.4658 28.3645L76.6016 32.8591C77.5927 33.3467 78.7918 32.9387 79.2798 31.9477L86.4883 17.3097C86.9243 16.4244 86.5598 15.3534 85.6743 14.9178L84.0709 14.129C84.0709 14.1289 84.0709 14.1289 84.0709 14.1289C84.0709 14.1288 84.0709 14.1288 84.0709 14.1287L73.8647 9.10758Z" fill="url(#paint1_linear_1149_11817)"/>
</g>
</g>
<defs>
<filter id="filter0_bd_1149_11817" x="0.27832" y="-4" width="98.9995" height="56" filterUnits="userSpaceOnUse" color-interpolation-filters="sRGB">
<feFlood flood-opacity="0" result="BackgroundImageFix"/>
<feGaussianBlur in="BackgroundImageFix" stdDeviation="2"/>
<feComposite in2="SourceAlpha" operator="in" result="effect1_backgroundBlur_1149_11817"/>
<feColorMatrix in="SourceAlpha" type="matrix" values="0 0 0 0 0 0 0 0 0 0 0 0 0 0 0 0 0 0 127 0" result="hardAlpha"/>
<feOffset dy="4"/>
<feGaussianBlur stdDeviation="2"/>
<feComposite in2="hardAlpha" operator="out"/>
<feColorMatrix type="matrix" values="0 0 0 0 0 0 0 0 0 0 0 0 0 0 0 0 0 0 0.25 0"/>
<feBlend mode="normal" in2="effect1_backgroundBlur_1149_11817" result="effect2_dropShadow_1149_11817"/>
<feBlend mode="normal" in="SourceGraphic" in2="effect2_dropShadow_1149_11817" result="shape"/>
</filter>
<filter id="filter1_d_1149_11817" x="61.2388" y="10.0244" width="28.8672" height="33.2986" filterUnits="userSpaceOnUse" color-interpolation-filters="sRGB">
<feFlood flood-opacity="0" result="BackgroundImageFix"/>
<feColorMatrix in="SourceAlpha" type="matrix" values="0 0 0 0 0 0 0 0 0 0 0 0 0 0 0 0 0 0 127 0" result="hardAlpha"/>
<feOffset dy="4"/>
<feGaussianBlur stdDeviation="2"/>
<feComposite in2="hardAlpha" operator="out"/>
<feColorMatrix type="matrix" values="0 0 0 0 0 0 0 0 0 0 0 0 0 0 0 0 0 0 0.05 0"/>
<feBlend mode="normal" in2="BackgroundImageFix" result="effect1_dropShadow_1149_11817"/>
<feBlend mode="normal" in="SourceGraphic" in2="effect1_dropShadow_1149_11817" result="shape"/>
</filter>
<filter id="filter2_d_1149_11817" x="55.2783" y="7.99976" width="32.7847" height="33.9746" filterUnits="userSpaceOnUse" color-interpolation-filters="sRGB">
<feFlood flood-opacity="0" result="BackgroundImageFix"/>
<feColorMatrix in="SourceAlpha" type="matrix" values="0 0 0 0 0 0 0 0 0 0 0 0 0 0 0 0 0 0 127 0" result="hardAlpha"/>
<feOffset dy="4"/>
<feGaussianBlur stdDeviation="2"/>
<feComposite in2="hardAlpha" operator="out"/>
<feColorMatrix type="matrix" values="0 0 0 0 0 0 0 0 0 0 0 0 0 0 0 0 0 0 0.05 0"/>
<feBlend mode="normal" in2="BackgroundImageFix" result="effect1_dropShadow_1149_11817"/>
<feBlend mode="normal" in="SourceGraphic" in2="effect1_dropShadow_1149_11817" result="shape"/>
</filter>
<filter id="filter3_d_1149_11817" x="56.1763" y="8.00024" width="32.5083" height="33.4131" filterUnits="userSpaceOnUse" color-interpolation-filters="sRGB">
<feFlood flood-opacity="0" result="BackgroundImageFix"/>
<feColorMatrix in="SourceAlpha" type="matrix" values="0 0 0 0 0 0 0 0 0 0 0 0 0 0 0 0 0 0 127 0" result="hardAlpha"/>
<feOffset dy="4"/>
<feGaussianBlur stdDeviation="2"/>
<feComposite in2="hardAlpha" operator="out"/>
<feColorMatrix type="matrix" values="0 0 0 0 0 0 0 0 0 0 0 0 0 0 0 0 0 0 0.05 0"/>
<feBlend mode="normal" in2="BackgroundImageFix" result="effect1_dropShadow_1149_11817"/>
<feBlend mode="normal" in="SourceGraphic" in2="effect1_dropShadow_1149_11817" result="shape"/>
</filter>
<filter id="filter4_d_1149_11817" x="57.1279" y="8" width="32.1768" height="32.7395" filterUnits="userSpaceOnUse" color-interpolation-filters="sRGB">
<feFlood flood-opacity="0" result="BackgroundImageFix"/>
<feColorMatrix in="SourceAlpha" type="matrix" values="0 0 0 0 0 0 0 0 0 0 0 0 0 0 0 0 0 0 127 0" result="hardAlpha"/>
<feOffset dy="4"/>
<feGaussianBlur stdDeviation="2"/>
<feComposite in2="hardAlpha" operator="out"/>
<feColorMatrix type="matrix" values="0 0 0 0 0 0 0 0 0 0 0 0 0 0 0 0 0 0 0.05 0"/>
<feBlend mode="normal" in2="BackgroundImageFix" result="effect1_dropShadow_1149_11817"/>
<feBlend mode="normal" in="SourceGraphic" in2="effect1_dropShadow_1149_11817" result="shape"/>
</filter>
<filter id="filter5_d_1149_11817" x="62.3486" y="4.90161" width="28.3237" height="32.1633" filterUnits="userSpaceOnUse" color-interpolation-filters="sRGB">
<feFlood flood-opacity="0" result="BackgroundImageFix"/>
<feColorMatrix in="SourceAlpha" type="matrix" values="0 0 0 0 0 0 0 0 0 0 0 0 0 0 0 0 0 0 127 0" result="hardAlpha"/>
<feOffset/>
<feGaussianBlur stdDeviation="2"/>
<feComposite in2="hardAlpha" operator="out"/>
<feColorMatrix type="matrix" values="0 0 0 0 0 0 0 0 0 0 0 0 0 0 0 0 0 0 0.1 0"/>
<feBlend mode="normal" in2="BackgroundImageFix" result="effect1_dropShadow_1149_11817"/>
<feBlend mode="normal" in="SourceGraphic" in2="effect1_dropShadow_1149_11817" result="shape"/>
</filter>
<linearGradient id="paint0_linear_1149_11817" x1="49.778" y1="0" x2="49.778" y2="44" gradientUnits="userSpaceOnUse">
<stop stop-color="#FE9C42"/>
<stop offset="1" stop-color="#E25100"/>
</linearGradient>
<linearGradient id="paint1_linear_1149_11817" x1="67.6293" y1="17.2422" x2="82.8341" y2="24.7298" gradientUnits="userSpaceOnUse">
<stop stop-color="#FFEC88"/>
<stop offset="1" stop-color="#FFA95A"/>
</linearGradient>
</defs>
</svg>
