<svg xmlns="http://www.w3.org/2000/svg" fill="none" viewBox="4 -1.5 44 46">
<g filter="url(#filter0_bd_2771_3290)">
<mask id="path-1-inside-1_2771_3290" fill="white">
<path d="M4.00049 20.5C4.00049 9.4543 12.9548 0.5 24.0005 0.5L27.9999 0.5C39.0456 0.5 47.9999 9.45431 47.9999 20.5L47.9999 24.5C47.9999 35.5457 39.0456 44.5 27.9999 44.5L24.0005 44.5C12.9548 44.5 4.00049 35.5457 4.00049 24.5V20.5Z"/>
</mask>
<path d="M4.00049 20.5C4.00049 9.4543 12.9548 0.5 24.0005 0.5L27.9999 0.5C39.0456 0.5 47.9999 9.45431 47.9999 20.5L47.9999 24.5C47.9999 35.5457 39.0456 44.5 27.9999 44.5L24.0005 44.5C12.9548 44.5 4.00049 35.5457 4.00049 24.5V20.5Z" fill="url(#paint0_linear_2771_3290)" shape-rendering="crispEdges"/>
<path d="M4.00049 20.4997C4.00049 8.34961 13.8501 -1.5 26.0002 -1.5C38.1503 -1.5 47.9999 8.34961 47.9999 20.4997V20.5C47.9999 10.5589 39.0456 2.5 27.9999 2.5L24.0005 2.5C12.9548 2.5 4.00049 10.5589 4.00049 20.5V20.4997ZM47.9999 44.5L4.00049 44.5L47.9999 44.5ZM4.00049 44.5L4.00049 0.5L4.00049 44.5ZM47.9999 0.5L47.9999 44.5L47.9999 0.5Z" fill="white" fill-opacity="0.5" mask="url(#path-1-inside-1_2771_3290)"/>
<g filter="url(#filter1_d_2771_3290)">
<path fill-rule="evenodd" clip-rule="evenodd" d="M26.0341 10.7304C25.043 10.2427 23.8439 10.6508 23.3559 11.6417L21.147 16.1273C20.8092 16.8132 21.0915 17.6429 21.7776 17.9805C22.4637 18.318 22.746 19.1477 22.4082 19.8336L18.1669 28.4464C17.6789 29.4373 18.0868 30.6359 19.0779 31.1235L28.2117 35.6171C29.2028 36.1047 30.4018 35.6967 30.8898 34.7058L38.6441 18.9593C39.0801 18.074 38.7157 17.0032 37.8302 16.5675L36.2405 15.7854C36.233 15.7817 36.2299 15.7726 36.2336 15.7651C36.2373 15.7576 36.2342 15.7486 36.2267 15.7449L26.0341 10.7304Z" fill="#D1B883"/>
</g>
<g filter="url(#filter2_d_2771_3290)">
<rect width="20.2728" height="17.6405" transform="matrix(0.441786 -0.89712 0.897289 0.441444 12.0005 26.687)" fill="#FFF2D2"/>
</g>
<g filter="url(#filter3_d_2771_3290)">
<rect width="19.6471" height="17.6405" transform="matrix(0.441786 -0.89712 0.897289 0.441444 12.8984 26.126)" fill="#FFF7E2"/>
</g>
<g filter="url(#filter4_d_2771_3290)">
<rect width="18.8963" height="17.6405" transform="matrix(0.441786 -0.89712 0.897289 0.441444 13.8501 25.4521)" fill="white"/>
</g>
<g filter="url(#filter5_d_2771_3290)">
<path fill-rule="evenodd" clip-rule="evenodd" d="M26.5869 9.60758C25.5958 9.11997 24.3967 9.528 23.9088 10.5189L21.589 15.2296C21.2515 15.915 21.5336 16.7441 22.2192 17.0814C22.9047 17.4186 23.1869 18.2477 22.8493 18.9332L19.277 26.1874C18.789 27.1783 19.1969 28.3769 20.188 28.8645L29.3238 33.3591C30.3149 33.8467 31.514 33.4387 32.0019 32.4477L39.2104 17.8097C39.6464 16.9244 39.282 15.8534 38.3965 15.4178L36.7931 14.629C36.7931 14.6289 36.793 14.6289 36.7931 14.6289C36.7931 14.6288 36.7931 14.6288 36.793 14.6287L26.5869 9.60758Z" fill="url(#paint1_linear_2771_3290)"/>
</g>
</g>
<defs>
<filter id="filter0_bd_2771_3290" x="0.000488281" y="-3.5" width="51.9995" height="56" filterUnits="userSpaceOnUse" color-interpolation-filters="sRGB">
<feFlood flood-opacity="0" result="BackgroundImageFix"/>
<feGaussianBlur in="BackgroundImageFix" stdDeviation="2"/>
<feComposite in2="SourceAlpha" operator="in" result="effect1_backgroundBlur_2771_3290"/>
<feColorMatrix in="SourceAlpha" type="matrix" values="0 0 0 0 0 0 0 0 0 0 0 0 0 0 0 0 0 0 127 0" result="hardAlpha"/>
<feOffset dy="4"/>
<feGaussianBlur stdDeviation="2"/>
<feComposite in2="hardAlpha" operator="out"/>
<feColorMatrix type="matrix" values="0 0 0 0 0 0 0 0 0 0 0 0 0 0 0 0 0 0 0.25 0"/>
<feBlend mode="normal" in2="effect1_backgroundBlur_2771_3290" result="effect2_dropShadow_2771_3290"/>
<feBlend mode="normal" in="SourceGraphic" in2="effect2_dropShadow_2771_3290" result="shape"/>
</filter>
<filter id="filter1_d_2771_3290" x="13.9609" y="10.5244" width="28.8672" height="33.2986" filterUnits="userSpaceOnUse" color-interpolation-filters="sRGB">
<feFlood flood-opacity="0" result="BackgroundImageFix"/>
<feColorMatrix in="SourceAlpha" type="matrix" values="0 0 0 0 0 0 0 0 0 0 0 0 0 0 0 0 0 0 127 0" result="hardAlpha"/>
<feOffset dy="4"/>
<feGaussianBlur stdDeviation="2"/>
<feComposite in2="hardAlpha" operator="out"/>
<feColorMatrix type="matrix" values="0 0 0 0 0 0 0 0 0 0 0 0 0 0 0 0 0 0 0.05 0"/>
<feBlend mode="normal" in2="BackgroundImageFix" result="effect1_dropShadow_2771_3290"/>
<feBlend mode="normal" in="SourceGraphic" in2="effect1_dropShadow_2771_3290" result="shape"/>
</filter>
<filter id="filter2_d_2771_3290" x="8.00049" y="8.49976" width="32.7847" height="33.9746" filterUnits="userSpaceOnUse" color-interpolation-filters="sRGB">
<feFlood flood-opacity="0" result="BackgroundImageFix"/>
<feColorMatrix in="SourceAlpha" type="matrix" values="0 0 0 0 0 0 0 0 0 0 0 0 0 0 0 0 0 0 127 0" result="hardAlpha"/>
<feOffset dy="4"/>
<feGaussianBlur stdDeviation="2"/>
<feComposite in2="hardAlpha" operator="out"/>
<feColorMatrix type="matrix" values="0 0 0 0 0 0 0 0 0 0 0 0 0 0 0 0 0 0 0.05 0"/>
<feBlend mode="normal" in2="BackgroundImageFix" result="effect1_dropShadow_2771_3290"/>
<feBlend mode="normal" in="SourceGraphic" in2="effect1_dropShadow_2771_3290" result="shape"/>
</filter>
<filter id="filter3_d_2771_3290" x="8.89844" y="8.50024" width="32.5083" height="33.4131" filterUnits="userSpaceOnUse" color-interpolation-filters="sRGB">
<feFlood flood-opacity="0" result="BackgroundImageFix"/>
<feColorMatrix in="SourceAlpha" type="matrix" values="0 0 0 0 0 0 0 0 0 0 0 0 0 0 0 0 0 0 127 0" result="hardAlpha"/>
<feOffset dy="4"/>
<feGaussianBlur stdDeviation="2"/>
<feComposite in2="hardAlpha" operator="out"/>
<feColorMatrix type="matrix" values="0 0 0 0 0 0 0 0 0 0 0 0 0 0 0 0 0 0 0.05 0"/>
<feBlend mode="normal" in2="BackgroundImageFix" result="effect1_dropShadow_2771_3290"/>
<feBlend mode="normal" in="SourceGraphic" in2="effect1_dropShadow_2771_3290" result="shape"/>
</filter>
<filter id="filter4_d_2771_3290" x="9.8501" y="8.5" width="32.1768" height="32.7395" filterUnits="userSpaceOnUse" color-interpolation-filters="sRGB">
<feFlood flood-opacity="0" result="BackgroundImageFix"/>
<feColorMatrix in="SourceAlpha" type="matrix" values="0 0 0 0 0 0 0 0 0 0 0 0 0 0 0 0 0 0 127 0" result="hardAlpha"/>
<feOffset dy="4"/>
<feGaussianBlur stdDeviation="2"/>
<feComposite in2="hardAlpha" operator="out"/>
<feColorMatrix type="matrix" values="0 0 0 0 0 0 0 0 0 0 0 0 0 0 0 0 0 0 0.05 0"/>
<feBlend mode="normal" in2="BackgroundImageFix" result="effect1_dropShadow_2771_3290"/>
<feBlend mode="normal" in="SourceGraphic" in2="effect1_dropShadow_2771_3290" result="shape"/>
</filter>
<filter id="filter5_d_2771_3290" x="15.0708" y="5.40161" width="28.3237" height="32.1633" filterUnits="userSpaceOnUse" color-interpolation-filters="sRGB">
<feFlood flood-opacity="0" result="BackgroundImageFix"/>
<feColorMatrix in="SourceAlpha" type="matrix" values="0 0 0 0 0 0 0 0 0 0 0 0 0 0 0 0 0 0 127 0" result="hardAlpha"/>
<feOffset/>
<feGaussianBlur stdDeviation="2"/>
<feComposite in2="hardAlpha" operator="out"/>
<feColorMatrix type="matrix" values="0 0 0 0 0 0 0 0 0 0 0 0 0 0 0 0 0 0 0.1 0"/>
<feBlend mode="normal" in2="BackgroundImageFix" result="effect1_dropShadow_2771_3290"/>
<feBlend mode="normal" in="SourceGraphic" in2="effect1_dropShadow_2771_3290" result="shape"/>
</filter>
<linearGradient id="paint0_linear_2771_3290" x1="26.0002" y1="0.5" x2="26.0002" y2="44.5" gradientUnits="userSpaceOnUse">
<stop stop-color="#FE9C42"/>
<stop offset="1" stop-color="#E25100"/>
</linearGradient>
<linearGradient id="paint1_linear_2771_3290" x1="20.3515" y1="17.7422" x2="35.5563" y2="25.2298" gradientUnits="userSpaceOnUse">
<stop stop-color="#FFEC88"/>
<stop offset="1" stop-color="#FFA95A"/>
</linearGradient>
</defs>
</svg>