<svg width="24" height="24" viewBox="0 0 24 24" fill="none" xmlns="http://www.w3.org/2000/svg">
<path d="M8.67885 4.08984C10.1566 1.43888 10.8955 0.113403 12.0002 0.113403C13.1048 0.113403 13.8437 1.43888 15.3215 4.08984L15.7038 4.77567C16.1237 5.52899 16.3337 5.90565 16.6611 6.15418C16.9884 6.4027 17.3962 6.49495 18.2116 6.67946L18.954 6.84744C21.8237 7.49672 23.2585 7.82136 23.5998 8.91909C23.9412 10.0168 22.963 11.1607 21.0067 13.4483L20.5006 14.0402C19.9447 14.6902 19.6667 15.0153 19.5417 15.4174C19.4166 15.8195 19.4586 16.2532 19.5427 17.1205L19.6192 17.9102C19.915 20.9624 20.0629 22.4886 19.1692 23.167C18.2755 23.8454 16.932 23.2269 14.2452 21.9898L13.5501 21.6697C12.7866 21.3182 12.4048 21.1424 12.0002 21.1424C11.5955 21.1424 11.2137 21.3182 10.4502 21.6697L9.75512 21.9898C7.06828 23.2269 5.72487 23.8454 4.83117 23.167C3.93747 22.4886 4.08536 20.9624 4.38112 17.9102L4.45764 17.1206C4.54169 16.2532 4.58372 15.8195 4.45867 15.4174C4.33362 15.0153 4.05566 14.6902 3.49973 14.0402L2.99361 13.4483C1.03729 11.1607 0.0591247 10.0168 0.400487 8.91909C0.74185 7.82136 2.17666 7.49672 5.04629 6.84744L5.7887 6.67946C6.60416 6.49495 7.01188 6.4027 7.33926 6.15418C7.66664 5.90565 7.87661 5.52899 8.29654 4.77568L8.67885 4.08984Z" fill="url(#paint0_linear_81_185)"/>
<defs>
<linearGradient id="paint0_linear_81_185" x1="12.0002" y1="0.113403" x2="12.0002" y2="23.4467" gradientUnits="userSpaceOnUse">
<stop stop-color="#FFEC88"/>
<stop offset="1" stop-color="#FFA95A"/>
</linearGradient>
</defs>
</svg>
