<svg width="21" height="20" viewBox="0 0 21 20" fill="none" xmlns="http://www.w3.org/2000/svg">
<path d="M12.6106 10.6945C12.4046 10.6945 12.2032 10.6334 12.0319 10.5189C11.8606 10.4045 11.727 10.2418 11.6482 10.0514C11.5694 9.8611 11.5487 9.65165 11.5889 9.44959C11.6291 9.24753 11.7283 9.06192 11.874 8.91624C12.0197 8.77056 12.2053 8.67135 12.4074 8.63116C12.6095 8.59096 12.8189 8.61159 13.0093 8.69043C13.1996 8.76928 13.3623 8.90279 13.4768 9.07409C13.5912 9.24539 13.6523 9.44679 13.6523 9.65281C13.6523 9.92908 13.5426 10.194 13.3472 10.3894C13.1519 10.5847 12.8869 10.6945 12.6106 10.6945ZM19.1561 14.2667C19.2428 14.7654 19.2193 15.2771 19.0874 15.7659C18.9555 16.2546 18.7183 16.7086 18.3925 17.096C18.0666 17.4835 17.66 17.7949 17.2011 18.0087C16.7421 18.2224 16.242 18.3332 15.7358 18.3334H12.9579C12.7737 18.3334 12.597 18.2602 12.4668 18.13C12.3366 17.9997 12.2634 17.8231 12.2634 17.6389V16.0674C11.81 16.1869 11.3433 16.2483 10.8744 16.25C10.4053 16.2476 9.93844 16.1846 9.48547 16.0625V17.6389C9.48547 17.8231 9.4123 17.9997 9.28206 18.13C9.15182 18.2602 8.97518 18.3334 8.79099 18.3334H6.01308C5.50682 18.3332 5.00672 18.2224 4.5478 18.0087C4.08888 17.7949 3.68225 17.4835 3.3564 17.096C3.03055 16.7086 2.79336 16.2546 2.66145 15.7659C2.52954 15.2771 2.5061 14.7654 2.59277 14.2667L2.80111 13.0584C2.87039 12.6565 3.05848 12.2846 3.34113 11.9906C3.62377 11.6966 3.98801 11.494 4.38687 11.409C4.78574 11.3239 5.20093 11.3603 5.57892 11.5134C5.95691 11.6666 6.28035 11.9294 6.50755 12.2681C7.38537 13.5584 9.07503 14.8611 10.8744 14.8611C13.0481 14.8611 15.1899 12.9313 15.8261 11.1278C15.8771 10.9922 15.9681 10.8754 16.087 10.7927C16.206 10.71 16.3472 10.6653 16.4921 10.6646L16.7921 10.6695C16.9265 10.6711 17.06 10.646 17.1847 10.5957C17.3094 10.5453 17.4228 10.4706 17.5184 10.376C17.6139 10.2814 17.6898 10.1688 17.7414 10.0446C17.7931 9.92046 17.8195 9.78728 17.8192 9.65281C17.819 9.40924 17.7334 9.17347 17.5773 8.98646C17.4213 8.79945 17.2046 8.67304 16.965 8.6292C16.8172 8.6024 16.6822 8.52843 16.58 8.41837C16.4778 8.30832 16.4141 8.16812 16.3983 8.01878C16.2556 6.6544 15.6116 5.39151 14.5912 4.47463C13.5707 3.55775 12.2463 3.0521 10.8744 3.05559C7.00132 3.05559 5.93807 5.57503 5.08386 7.60003C4.9283 7.966 4.78177 8.31531 4.62412 8.62989C6.02057 8.55606 7.38224 8.16739 8.60725 7.49299C9.83226 6.81858 10.8889 5.87589 11.6981 4.73545C11.7511 4.66122 11.8182 4.59815 11.8955 4.54984C11.9729 4.50154 12.059 4.46894 12.149 4.45392C12.2389 4.43889 12.331 4.44173 12.4198 4.46227C12.5087 4.48282 12.5926 4.52066 12.6669 4.57365C12.7411 4.62663 12.8042 4.69372 12.8525 4.77108C12.9008 4.84844 12.9334 4.93455 12.9484 5.02451C12.9635 5.11447 12.9606 5.2065 12.9401 5.29536C12.9195 5.38422 12.8817 5.46816 12.8287 5.5424C11.9273 6.82028 10.7512 7.88022 9.38685 8.64448C9.59483 8.69554 9.78202 8.80945 9.92293 8.97071C10.0638 9.13197 10.1516 9.33274 10.1743 9.54568C10.197 9.75862 10.1535 9.97338 10.0498 10.1607C9.94605 10.3481 9.78708 10.4989 9.59454 10.5926C9.402 10.6864 9.18524 10.7185 8.97378 10.6847C8.76232 10.6508 8.56643 10.5526 8.41279 10.4034C8.25914 10.2542 8.15521 10.0613 8.11515 9.85098C8.07508 9.64062 8.10083 9.42302 8.18888 9.22781C6.59214 9.87433 4.86566 10.136 3.14905 9.9917C3.00596 9.97252 2.87241 9.90924 2.76697 9.81064C2.66153 9.71205 2.58943 9.58305 2.56071 9.44158C2.53198 9.30011 2.54806 9.15321 2.60671 9.0213C2.66535 8.88939 2.76365 8.77904 2.88792 8.70559C3.30776 8.22927 3.62017 7.66819 3.80394 7.06045C4.71023 4.91254 6.08252 1.66671 10.8744 1.66671C12.5095 1.66283 14.0932 2.23757 15.3452 3.28918C16.5971 4.34079 17.4366 5.80143 17.715 7.41253C18.157 7.59728 18.5345 7.90849 18.8001 8.30707C19.0658 8.70564 19.2077 9.17382 19.2082 9.65281C19.207 10.2299 18.9962 10.7869 18.6151 11.2202C18.6199 11.2382 18.6325 11.2528 18.6359 11.2723L19.1561 14.2667ZM8.09651 15.5139C6.99802 14.9253 6.05882 14.0788 5.35957 13.0472C5.30007 12.9573 5.21933 12.8834 5.1245 12.8321C5.02966 12.7807 4.92364 12.7535 4.8158 12.7528H4.80399C4.65194 12.756 4.50572 12.8119 4.39033 12.911C4.27493 13.01 4.19752 13.1461 4.17132 13.2959L3.96298 14.5035C3.91084 14.8026 3.92474 15.1096 4.0037 15.4028C4.08265 15.696 4.22475 15.9684 4.42005 16.201C4.61535 16.4335 4.85912 16.6205 5.1343 16.749C5.40948 16.8774 5.7094 16.9441 6.01308 16.9445H8.09651V15.5139ZM17.788 14.5035L17.3518 11.9945C17.2198 12.026 17.0852 12.0459 16.9497 12.0542C16.2491 13.5326 15.0936 14.7479 13.6523 15.5222V16.9445H15.7358C16.0396 16.9444 16.3397 16.8779 16.615 16.7497C16.8904 16.6214 17.1344 16.4345 17.3299 16.202C17.5254 15.9695 17.6677 15.6971 17.7469 15.4038C17.826 15.1105 17.84 14.8028 17.788 14.5035Z" fill="#FFA800"/>
</svg>
