<svg width="15" height="15" viewBox="0 0 15 15" fill="none" xmlns="http://www.w3.org/2000/svg">
<g filter="url(#filter0_i_2506_1306)">
<path d="M13.3752 6.94222L12.5623 5.99788C12.4069 5.81857 12.2814 5.48387 12.2814 5.2448V4.22874C12.2814 3.5952 11.7614 3.07521 11.1279 3.07521H10.1118C9.87873 3.07521 9.53805 2.9497 9.35875 2.7943L8.41441 1.98145C8.00201 1.62882 7.32663 1.62882 6.90825 1.98145L5.96989 2.80028C5.79059 2.9497 5.44991 3.07521 5.21681 3.07521H4.18282C3.54928 3.07521 3.0293 3.5952 3.0293 4.22874V5.25078C3.0293 5.48387 2.90378 5.81857 2.75436 5.99788L1.94749 6.94819C1.60084 7.36059 1.60084 8.03 1.94749 8.4424L2.75436 9.39271C2.90378 9.57202 3.0293 9.90672 3.0293 10.1398V11.1619C3.0293 11.7954 3.54928 12.3154 4.18282 12.3154H5.21681C5.44991 12.3154 5.79059 12.4409 5.96989 12.5963L6.91423 13.4091C7.32663 13.7618 8.00201 13.7618 8.42039 13.4091L9.36473 12.5963C9.54403 12.4409 9.87873 12.3154 10.1178 12.3154H11.1339C11.7674 12.3154 12.2874 11.7954 12.2874 11.1619V10.1458C12.2874 9.9127 12.4129 9.57202 12.5683 9.39271L13.3812 8.44837C13.7278 8.03597 13.7278 7.35462 13.3752 6.94222ZM10.1477 6.56568L7.26089 9.45248C7.17721 9.53616 7.06365 9.58397 6.94411 9.58397C6.82458 9.58397 6.71102 9.53616 6.62734 9.45248L5.18095 8.00609C5.00762 7.83276 5.00762 7.54587 5.18095 7.37255C5.35428 7.19922 5.64117 7.19922 5.8145 7.37255L6.94411 8.50217L9.51415 5.93213C9.68748 5.75881 9.97436 5.75881 10.1477 5.93213C10.321 6.10546 10.321 6.39235 10.1477 6.56568Z" fill="url(#paint0_linear_2506_1306)" fill-opacity="0.9"/>
</g>
<defs>
<filter id="filter0_i_2506_1306" x="0.489258" y="-0.373391" width="14.3442" height="15.2409" filterUnits="userSpaceOnUse" color-interpolation-filters="sRGB">
<feFlood flood-opacity="0" result="BackgroundImageFix"/>
<feBlend mode="normal" in="SourceGraphic" in2="BackgroundImageFix" result="shape"/>
<feColorMatrix in="SourceAlpha" type="matrix" values="0 0 0 0 0 0 0 0 0 0 0 0 0 0 0 0 0 0 127 0" result="hardAlpha"/>
<feOffset dy="-0.896523"/>
<feGaussianBlur stdDeviation="0.448262"/>
<feComposite in2="hardAlpha" operator="arithmetic" k2="-1" k3="1"/>
<feColorMatrix type="matrix" values="0 0 0 0 1 0 0 0 0 1 0 0 0 0 1 0 0 0 0.25 0"/>
<feBlend mode="normal" in2="shape" result="effect1_innerShadow_2506_1306"/>
</filter>
<linearGradient id="paint0_linear_2506_1306" x1="7.66395" y1="1.71698" x2="7.66395" y2="13.6736" gradientUnits="userSpaceOnUse">
<stop stop-color="#484369"/>
<stop offset="1" stop-color="#090517" stop-opacity="0.99"/>
</linearGradient>
</defs>
</svg>
