<svg width="15" height="15" viewBox="0 0 15 15" fill="none" xmlns="http://www.w3.org/2000/svg">
<g filter="url(#filter0_i_2506_1313)">
<path d="M5.02002 11.5743V5.50182C5.02002 5.26275 5.09174 5.02965 5.22323 4.83242L6.8549 2.40583C7.11191 2.01734 7.75143 1.7424 8.29532 1.94561C8.88105 2.14285 9.26954 2.8003 9.14403 3.38603L8.83323 5.34045C8.80932 5.51975 8.85714 5.68113 8.95874 5.80664C9.06035 5.9202 9.20977 5.99192 9.37114 5.99192H11.8276C12.2998 5.99192 12.7062 6.18318 12.9453 6.51788C13.1724 6.84063 13.2142 7.25901 13.0648 7.68336L11.5945 12.16C11.4092 12.9011 10.6024 13.5048 9.80148 13.5048H7.47052C7.07007 13.5048 6.50825 13.3673 6.25124 13.1103L5.48621 12.5186C5.19335 12.2975 5.02002 11.9448 5.02002 11.5743Z" fill="url(#paint0_linear_2506_1313)" fill-opacity="0.9"/>
<path d="M3.11875 4.33636H2.50314C1.57673 4.33636 1.2002 4.69497 1.2002 5.57954V11.5922C1.2002 12.4768 1.57673 12.8354 2.50314 12.8354H3.11875C4.04516 12.8354 4.4217 12.4768 4.4217 11.5922V5.57954C4.4217 4.69497 4.04516 4.33636 3.11875 4.33636Z" fill="url(#paint1_linear_2506_1313)" fill-opacity="0.9"/>
</g>
<defs>
<filter id="filter0_i_2506_1313" x="0.00585938" y="-0.373391" width="14.3442" height="15.2409" filterUnits="userSpaceOnUse" color-interpolation-filters="sRGB">
<feFlood flood-opacity="0" result="BackgroundImageFix"/>
<feBlend mode="normal" in="SourceGraphic" in2="BackgroundImageFix" result="shape"/>
<feColorMatrix in="SourceAlpha" type="matrix" values="0 0 0 0 0 0 0 0 0 0 0 0 0 0 0 0 0 0 127 0" result="hardAlpha"/>
<feOffset dy="-0.896523"/>
<feGaussianBlur stdDeviation="0.448262"/>
<feComposite in2="hardAlpha" operator="arithmetic" k2="-1" k3="1"/>
<feColorMatrix type="matrix" values="0 0 0 0 1 0 0 0 0 1 0 0 0 0 1 0 0 0 0.25 0"/>
<feBlend mode="normal" in2="shape" result="effect1_innerShadow_2506_1313"/>
</filter>
<linearGradient id="paint0_linear_2506_1313" x1="9.08638" y1="1.87683" x2="9.08638" y2="13.5048" gradientUnits="userSpaceOnUse">
<stop stop-color="#484369"/>
<stop offset="1" stop-color="#090517" stop-opacity="0.99"/>
</linearGradient>
<linearGradient id="paint1_linear_2506_1313" x1="2.81095" y1="4.33636" x2="2.81095" y2="12.8354" gradientUnits="userSpaceOnUse">
<stop stop-color="#484369"/>
<stop offset="1" stop-color="#090517" stop-opacity="0.99"/>
</linearGradient>
</defs>
</svg>
