<svg width="21" height="20" viewBox="0 0 21 20" fill="none" xmlns="http://www.w3.org/2000/svg">
<path d="M10.4998 1.66669C5.90817 1.66669 2.1665 5.40835 2.1665 10C2.1665 14.5917 5.90817 18.3334 10.4998 18.3334C15.0915 18.3334 18.8332 14.5917 18.8332 10C18.8332 5.40835 15.0915 1.66669 10.4998 1.66669ZM9.87484 6.66669C9.87484 6.32502 10.1582 6.04169 10.4998 6.04169C10.8415 6.04169 11.1248 6.32502 11.1248 6.66669L11.1248 10.8334C11.1248 11.175 10.8415 11.4584 10.4998 11.4584C10.1582 11.4584 9.87484 11.175 9.87484 10.8334L9.87484 6.66669ZM11.2665 13.65C11.2248 13.7584 11.1665 13.8417 11.0915 13.925C11.0082 14 10.9165 14.0584 10.8165 14.1C10.7165 14.1417 10.6082 14.1667 10.4998 14.1667C10.3915 14.1667 10.2832 14.1417 10.1832 14.1C10.0832 14.0584 9.9915 14 9.90817 13.925C9.83317 13.8417 9.77484 13.7584 9.73317 13.65C9.6915 13.55 9.6665 13.4417 9.6665 13.3334C9.6665 13.225 9.6915 13.1167 9.73317 13.0167C9.77484 12.9167 9.83317 12.825 9.90817 12.7417C9.9915 12.6667 10.0832 12.6084 10.1832 12.5667C10.3832 12.4834 10.6165 12.4834 10.8165 12.5667C10.9165 12.6084 11.0082 12.6667 11.0915 12.7417C11.1665 12.825 11.2248 12.9167 11.2665 13.0167C11.3082 13.1167 11.3332 13.225 11.3332 13.3334C11.3332 13.4417 11.3082 13.55 11.2665 13.65Z" fill="url(#paint0_linear_2819_1716)"/>
<defs>
<linearGradient id="paint0_linear_2819_1716" x1="10.4998" y1="1.66669" x2="10.4998" y2="18.3334" gradientUnits="userSpaceOnUse">
<stop stop-color="#FFEC88"/>
<stop offset="1" stop-color="#FFA95A"/>
</linearGradient>
</defs>
</svg>
