<svg width="33" height="35" viewBox="0 0 33 35" fill="none" xmlns="http://www.w3.org/2000/svg">
<g filter="url(#filter0_d_1016_1229)">
<path d="M22.5417 2.93628H10.4584C6.83341 2.93628 4.41675 5.35295 4.41675 8.97795V16.2279C4.41675 19.8529 6.83341 22.2696 10.4584 22.2696V24.8434C10.4584 25.81 11.5338 26.39 12.3313 25.8463L17.7084 22.2696H22.5417C26.1667 22.2696 28.5834 19.8529 28.5834 16.2279V8.97795C28.5834 5.35295 26.1667 2.93628 22.5417 2.93628ZM16.5001 17.6417C15.9926 17.6417 15.5938 17.2309 15.5938 16.7354C15.5938 16.24 15.9926 15.8292 16.5001 15.8292C17.0076 15.8292 17.4063 16.24 17.4063 16.7354C17.4063 17.2309 17.0076 17.6417 16.5001 17.6417ZM18.0226 12.6271C17.5513 12.9413 17.4063 13.1467 17.4063 13.485V13.7388C17.4063 14.2342 16.9955 14.645 16.5001 14.645C16.0047 14.645 15.5938 14.2342 15.5938 13.7388V13.485C15.5938 12.0834 16.6209 11.3946 17.0076 11.1288C17.4547 10.8267 17.5997 10.6213 17.5997 10.3071C17.5997 9.70294 17.1042 9.20753 16.5001 9.20753C15.8959 9.20753 15.4005 9.70294 15.4005 10.3071C15.4005 10.8025 14.9897 11.2134 14.4942 11.2134C13.9988 11.2134 13.588 10.8025 13.588 10.3071C13.588 8.70003 14.893 7.39503 16.5001 7.39503C18.1072 7.39503 19.4122 8.70003 19.4122 10.3071C19.4122 11.6846 18.3972 12.3734 18.0226 12.6271Z" fill="url(#paint0_linear_1016_1229)"/>
</g>
<defs>
<filter id="filter0_d_1016_1229" x="-2" y="0" width="37" height="37" filterUnits="userSpaceOnUse" color-interpolation-filters="sRGB">
<feFlood flood-opacity="0" result="BackgroundImageFix"/>
<feColorMatrix in="SourceAlpha" type="matrix" values="0 0 0 0 0 0 0 0 0 0 0 0 0 0 0 0 0 0 127 0" result="hardAlpha"/>
<feOffset dy="4"/>
<feGaussianBlur stdDeviation="2"/>
<feComposite in2="hardAlpha" operator="out"/>
<feColorMatrix type="matrix" values="0 0 0 0 0 0 0 0 0 0 0 0 0 0 0 0 0 0 0.25 0"/>
<feBlend mode="normal" in2="BackgroundImageFix" result="effect1_dropShadow_1016_1229"/>
<feBlend mode="normal" in="SourceGraphic" in2="effect1_dropShadow_1016_1229" result="shape"/>
</filter>
<linearGradient id="paint0_linear_1016_1229" x1="16.5001" y1="2.93628" x2="16.5001" y2="26.0555" gradientUnits="userSpaceOnUse">
<stop stop-color="#FFEC88"/>
<stop offset="1" stop-color="#FFA95A"/>
</linearGradient>
</defs>
</svg>
