<svg width="29" height="34" viewBox="0 0 29 34" fill="none" xmlns="http://www.w3.org/2000/svg">
<g filter="url(#filter0_d_1149_3227)">
<path d="M14.5002 2.33331C11.4435 2.33331 8.9585 4.81831 8.9585 7.87498C8.9585 10.8733 11.3035 13.3 14.3602 13.405C14.4535 13.3933 14.5468 13.3933 14.6168 13.405C14.6402 13.405 14.6518 13.405 14.6752 13.405C14.6868 13.405 14.6868 13.405 14.6985 13.405C17.6852 13.3 20.0302 10.8733 20.0418 7.87498C20.0418 4.81831 17.5568 2.33331 14.5002 2.33331Z" fill="url(#paint0_linear_1149_3227)"/>
<path d="M20.4266 16.5084C17.1716 14.3384 11.8633 14.3384 8.58495 16.5084C7.10329 17.5 6.28662 18.8417 6.28662 20.2767C6.28662 21.7117 7.10329 23.0417 8.57329 24.0217C10.2066 25.1184 12.3533 25.6667 14.5 25.6667C16.6466 25.6667 18.7933 25.1184 20.4266 24.0217C21.8966 23.03 22.7133 21.7 22.7133 20.2534C22.7016 18.8184 21.8966 17.4884 20.4266 16.5084Z" fill="url(#paint1_linear_1149_3227)"/>
</g>
<defs>
<filter id="filter0_d_1149_3227" x="-3.5" y="0" width="36" height="36" filterUnits="userSpaceOnUse" color-interpolation-filters="sRGB">
<feFlood flood-opacity="0" result="BackgroundImageFix"/>
<feColorMatrix in="SourceAlpha" type="matrix" values="0 0 0 0 0 0 0 0 0 0 0 0 0 0 0 0 0 0 127 0" result="hardAlpha"/>
<feOffset dy="4"/>
<feGaussianBlur stdDeviation="2"/>
<feComposite in2="hardAlpha" operator="out"/>
<feColorMatrix type="matrix" values="0 0 0 0 0 0 0 0 0 0 0 0 0 0 0 0 0 0 0.25 0"/>
<feBlend mode="normal" in2="BackgroundImageFix" result="effect1_dropShadow_1149_3227"/>
<feBlend mode="normal" in="SourceGraphic" in2="effect1_dropShadow_1149_3227" result="shape"/>
</filter>
<linearGradient id="paint0_linear_1149_3227" x1="14.5002" y1="2.33331" x2="14.5002" y2="13.405" gradientUnits="userSpaceOnUse">
<stop stop-color="#FFEC88"/>
<stop offset="1" stop-color="#FFA95A"/>
</linearGradient>
<linearGradient id="paint1_linear_1149_3227" x1="14.5" y1="14.8809" x2="14.5" y2="25.6667" gradientUnits="userSpaceOnUse">
<stop stop-color="#FFEC88"/>
<stop offset="1" stop-color="#FFA95A"/>
</linearGradient>
</defs>
</svg>
