<svg width="28" height="28" viewBox="0 0 28 28" fill="none" xmlns="http://www.w3.org/2000/svg">
<g clip-path="url(#clip0_1531_1395)">
<path d="M10.5002 2.33331C7.4435 2.33331 4.9585 4.81831 4.9585 7.87498C4.9585 10.8733 7.3035 13.3 10.3602 13.405C10.4535 13.3933 10.5468 13.3933 10.6168 13.405C10.6402 13.405 10.6518 13.405 10.6752 13.405C10.6868 13.405 10.6868 13.405 10.6985 13.405C13.6852 13.3 16.0302 10.8733 16.0418 7.87498C16.0418 4.81831 13.5568 2.33331 10.5002 2.33331Z" fill="url(#paint0_linear_1531_1395)"/>
<path d="M16.4266 16.5084C13.1716 14.3384 7.86329 14.3384 4.58495 16.5084C3.10329 17.5 2.28662 18.8417 2.28662 20.2767C2.28662 21.7117 3.10329 23.0417 4.57329 24.0217C6.20662 25.1184 8.35329 25.6667 10.5 25.6667C12.6466 25.6667 14.7933 25.1184 16.4266 24.0217C17.8966 23.03 18.7133 21.7 18.7133 20.2534C18.7016 18.8184 17.8966 17.4884 16.4266 16.5084Z" fill="url(#paint1_linear_1531_1395)"/>
<path d="M23.3214 8.56331C23.5081 10.8266 21.8981 12.81 19.6698 13.0783C19.6581 13.0783 19.6581 13.0783 19.6464 13.0783H19.6114C19.5414 13.0783 19.4714 13.0783 19.4131 13.1016C18.2814 13.16 17.2431 12.7983 16.4614 12.1333C17.6631 11.06 18.3514 9.44997 18.2114 7.69997C18.1298 6.75497 17.8031 5.89164 17.3131 5.15664C17.7564 4.93497 18.2698 4.79497 18.7948 4.74831C21.0814 4.54997 23.1231 6.25331 23.3214 8.56331Z" fill="url(#paint2_linear_1531_1395)"/>
<path d="M25.6551 19.355C25.5618 20.4867 24.8384 21.4667 23.6251 22.1317C22.4584 22.7733 20.9884 23.0767 19.5301 23.0417C20.3701 22.2833 20.8601 21.3383 20.9534 20.335C21.0701 18.8883 20.3818 17.5 19.0051 16.3917C18.2234 15.7733 17.3134 15.2833 16.3218 14.9217C18.9001 14.175 22.1434 14.6767 24.1384 16.2867C25.2118 17.15 25.7601 18.235 25.6551 19.355Z" fill="url(#paint3_linear_1531_1395)"/>
</g>
<defs>
<linearGradient id="paint0_linear_1531_1395" x1="10.5002" y1="2.33331" x2="10.5002" y2="13.405" gradientUnits="userSpaceOnUse">
<stop stop-color="#FFEC88"/>
<stop offset="1" stop-color="#FFA95A"/>
</linearGradient>
<linearGradient id="paint1_linear_1531_1395" x1="10.5" y1="14.8809" x2="10.5" y2="25.6667" gradientUnits="userSpaceOnUse">
<stop stop-color="#FFEC88"/>
<stop offset="1" stop-color="#FFA95A"/>
</linearGradient>
<linearGradient id="paint2_linear_1531_1395" x1="19.8988" y1="4.7326" x2="19.8988" y2="13.1078" gradientUnits="userSpaceOnUse">
<stop stop-color="#FFEC88"/>
<stop offset="1" stop-color="#FFA95A"/>
</linearGradient>
<linearGradient id="paint3_linear_1531_1395" x1="20.9948" y1="14.5829" x2="20.9948" y2="23.0444" gradientUnits="userSpaceOnUse">
<stop stop-color="#FFEC88"/>
<stop offset="1" stop-color="#FFA95A"/>
</linearGradient>
<clipPath id="clip0_1531_1395">
<rect width="28" height="28" fill="white"/>
</clipPath>
</defs>
</svg>
