<svg width="179.26731391585764" height="102.58560000000001" viewBox="-0.34563106796117815 0.11519999999999345 179.26731391585764 102.58560000000001" fill="none" xmlns="http://www.w3.org/2000/svg">
<path opacity="0.2" d="M0.969238 42.1732L45.3922 124.715L68.0973 124.715L56.2512 36.3862L0.969238 42.1732Z" fill="url(#paint0_linear_685_256)"></path>
<path opacity="0.2" d="M122.393 28.1628L104.623 137.508L138.517 137.508L177.969 35.5005L122.393 28.1628Z" fill="url(#paint1_linear_685_256)"></path>
<path d="M52.6316 4.10082L68.0976 121.365L106.927 121.365L125.528 6.35741L52.6316 4.10082Z" fill="url(#paint2_linear_685_256)"></path>
<path d="M16.7641 35.1677L0.969238 42.173L56.2512 36.386L55.5931 30.9035L16.7641 35.1677Z" fill="white" fill-opacity="0.6"></path>
<path d="M123.2 23.0991L122.392 28.1626L177.969 35.5003L165.637 28.6108L123.2 23.0991Z" fill="white" fill-opacity="0.6"></path>
<path d="M57.2189 0.140869L52.9604 4.05692L125.353 6.23251L118.802 1.22866L57.2189 0.140869Z" fill="#FFE583"></path>
<path d="M139.492 60.007C139.775 58.8242 139.973 57.9623 140.084 57.4214C140.665 54.6089 141.013 52.062 141.129 49.7809C141.329 46.6166 141.161 43.8987 140.624 41.6271L144.715 40.1422C144.973 40.9951 145.153 41.7962 145.254 42.5453C145.394 43.3014 145.531 43.8792 145.665 44.2787C145.819 44.6817 146.063 45.0267 146.398 45.3137C146.756 45.5862 147.267 45.7844 147.931 45.908C149.602 46.2191 150.645 45.3649 151.062 43.3457C151.133 43.0031 151.184 42.6102 151.217 42.1669L154.955 42.1047C154.966 42.9117 154.888 43.7209 154.72 44.5322C154.445 45.8664 153.951 47.0662 153.238 48.1317C152.544 49.2007 151.65 49.9985 150.556 50.5249C149.484 51.0368 148.265 51.1656 146.898 50.9111C146.329 50.8051 145.799 50.6034 145.308 50.3061C145.115 52.1985 144.776 54.3165 144.293 56.6603C144.021 57.9764 143.711 59.3323 143.364 60.728L139.492 60.007Z" fill="white" fill-opacity="0.6"></path>
<path d="M87.4114 43.079C87.4694 41.2601 87.4984 39.9373 87.4984 39.1106C87.4984 34.8115 87.2373 30.9671 86.715 27.5775C86.0476 22.865 84.974 18.9104 83.4941 15.7137L89.0653 12.4067C91.0675 16.1822 92.3587 20.9084 92.939 26.5854C93.2872 29.7546 93.4613 33.1718 93.4613 36.837C93.4613 38.8488 93.4178 40.9294 93.3308 43.079H87.4114Z" fill="white" fill-opacity="0.6"></path>
<path d="M39.3285 47.0577C39.8481 48.117 40.2926 48.8618 40.6619 49.2922C41.0475 49.7179 41.4263 49.8764 41.7985 49.7679C42.025 49.7018 42.1763 49.54 42.2523 49.2823C42.3234 49.0093 42.2819 48.6347 42.1279 48.1583C41.944 47.5897 41.6432 46.988 41.2254 46.3531L43.8267 44.4592C44.4671 45.3991 44.9513 46.3762 45.2792 47.3904C45.6072 48.4046 45.7411 49.3662 45.6809 50.275C45.6206 51.1839 45.3738 51.9538 44.9404 52.5847C44.507 53.2156 43.91 53.642 43.1496 53.8638C42.114 54.1659 41.0421 53.89 39.9337 53.0361C39.7666 53.7239 39.495 54.3076 39.1189 54.7873C38.7379 55.2516 38.248 55.571 37.6493 55.7457C37.1801 55.8825 36.7501 55.9491 36.3593 55.9454C37.033 57.481 37.6854 59.2246 38.3165 61.1763C38.6693 62.2673 39.0153 63.4193 39.3543 64.6321L36.0535 65.5949C35.7579 64.5712 35.5356 63.8289 35.3865 63.3678C34.6113 60.9706 33.7724 58.8693 32.8699 57.0641C31.648 54.5449 30.3362 52.5143 28.9346 50.9724L31.4449 48.2222C31.9722 48.7578 32.4305 49.2716 32.8198 49.7634C33.5747 50.6195 34.1549 51.1818 34.5605 51.4503C34.966 51.7188 35.4277 51.7775 35.9454 51.6265C36.3661 51.5038 36.673 51.2209 36.8662 50.7777C37.0705 50.3145 37.0509 49.7064 36.8074 48.9534C36.7379 48.7383 36.6751 48.5716 36.6192 48.4534L36.5894 48.3612L39.3285 47.0577Z" fill="white" fill-opacity="0.6"></path>
<defs>
<linearGradient id="paint0_linear_685_256" x1="29.7773" y1="38.9349" x2="45.6568" y2="123.292" gradientUnits="userSpaceOnUse">
<stop stop-color="white"></stop>
<stop offset="0.742708" stop-color="white" stop-opacity="0"></stop>
</linearGradient>
<linearGradient id="paint1_linear_685_256" x1="150.544" y1="30.6405" x2="136.745" y2="124.613" gradientUnits="userSpaceOnUse">
<stop stop-color="white"></stop>
<stop offset="0.753125" stop-color="white" stop-opacity="0"></stop>
</linearGradient>
<linearGradient id="paint2_linear_685_256" x1="89.1005" y1="4.93063" x2="89.6886" y2="105.442" gradientUnits="userSpaceOnUse">
<stop stop-color="#FFA95A"></stop>
<stop offset="0.595" stop-color="#FFEC88"></stop>
<stop offset="1" stop-color="#FFEC88" stop-opacity="0"></stop>
</linearGradient>
</defs>
</svg>