<svg width="43" height="45" viewBox="0 0 43 45" fill="none" xmlns="http://www.w3.org/2000/svg">
<g filter="url(#filter0_d_886_4029)">
<path d="M21.4999 3.33325C12.3166 3.33325 4.83325 10.8166 4.83325 19.9999C4.83325 29.1833 12.3166 36.6666 21.4999 36.6666C30.6833 36.6666 38.1666 29.1833 38.1666 19.9999C38.1666 10.8166 30.6833 3.33325 21.4999 3.33325ZM29.4666 16.1666L20.0166 25.6166C19.7833 25.8499 19.4666 25.9833 19.1333 25.9833C18.7999 25.9833 18.4833 25.8499 18.2499 25.6166L13.5333 20.8999C13.0499 20.4166 13.0499 19.6166 13.5333 19.1333C14.0166 18.6499 14.8166 18.6499 15.2999 19.1333L19.1333 22.9666L27.6999 14.3999C28.1833 13.9166 28.9833 13.9166 29.4666 14.3999C29.9499 14.8833 29.9499 15.6666 29.4666 16.1666Z" fill="url(#paint0_linear_886_4029)"/>
</g>
<defs>
<filter id="filter0_d_886_4029" x="-2.5" y="0" width="48" height="48" filterUnits="userSpaceOnUse" color-interpolation-filters="sRGB">
<feFlood flood-opacity="0" result="BackgroundImageFix"/>
<feColorMatrix in="SourceAlpha" type="matrix" values="0 0 0 0 0 0 0 0 0 0 0 0 0 0 0 0 0 0 127 0" result="hardAlpha"/>
<feOffset dy="4"/>
<feGaussianBlur stdDeviation="2"/>
<feComposite in2="hardAlpha" operator="out"/>
<feColorMatrix type="matrix" values="0 0 0 0 0 0 0 0 0 0 0 0 0 0 0 0 0 0 0.25 0"/>
<feBlend mode="normal" in2="BackgroundImageFix" result="effect1_dropShadow_886_4029"/>
<feBlend mode="normal" in="SourceGraphic" in2="effect1_dropShadow_886_4029" result="shape"/>
</filter>
<linearGradient id="paint0_linear_886_4029" x1="7.3739" y1="38.1372" x2="39.1521" y2="34.1117" gradientUnits="userSpaceOnUse">
<stop stop-color="#00D387"/>
<stop offset="1" stop-color="#6AFB67"/>
</linearGradient>
</defs>
</svg>
