<svg width="33" height="34" viewBox="0 0 33 34" fill="none" xmlns="http://www.w3.org/2000/svg">
<g filter="url(#filter0_d_1370_283)">
<path d="M27.6535 12.53L26.0669 10.6867C25.7635 10.3367 25.5185 9.68336 25.5185 9.21669V7.23336C25.5185 5.99669 24.5035 4.98169 23.2669 4.98169H21.2835C20.8285 4.98169 20.1635 4.73669 19.8135 4.43336L17.9702 2.84669C17.1652 2.15836 15.8469 2.15836 15.0302 2.84669L13.1985 4.44503C12.8485 4.73669 12.1835 4.98169 11.7285 4.98169H9.71019C8.47352 4.98169 7.45852 5.99669 7.45852 7.23336V9.22836C7.45852 9.68336 7.21352 10.3367 6.92186 10.6867L5.34686 12.5417C4.67019 13.3467 4.67019 14.6534 5.34686 15.4584L6.92186 17.3134C7.21352 17.6634 7.45852 18.3167 7.45852 18.7717V20.7667C7.45852 22.0034 8.47352 23.0184 9.71019 23.0184H11.7285C12.1835 23.0184 12.8485 23.2634 13.1985 23.5667L15.0419 25.1534C15.8469 25.8417 17.1652 25.8417 17.9819 25.1534L19.8252 23.5667C20.1752 23.2634 20.8285 23.0184 21.2952 23.0184H23.2785C24.5152 23.0184 25.5302 22.0034 25.5302 20.7667V18.7834C25.5302 18.3284 25.7752 17.6634 26.0785 17.3134L27.6652 15.47C28.3419 14.665 28.3419 13.335 27.6535 12.53ZM21.3535 11.795L15.7185 17.43C15.5552 17.5934 15.3335 17.6867 15.1002 17.6867C14.8669 17.6867 14.6452 17.5934 14.4819 17.43L11.6585 14.6067C11.3202 14.2684 11.3202 13.7084 11.6585 13.37C11.9969 13.0317 12.5569 13.0317 12.8952 13.37L15.1002 15.575L20.1169 10.5584C20.4552 10.22 21.0152 10.22 21.3535 10.5584C21.6919 10.8967 21.6919 11.4567 21.3535 11.795Z" fill="url(#paint0_linear_1370_283)"/>
</g>
<defs>
<filter id="filter0_d_1370_283" x="-1.5" y="0" width="36" height="36" filterUnits="userSpaceOnUse" color-interpolation-filters="sRGB">
<feFlood flood-opacity="0" result="BackgroundImageFix"/>
<feColorMatrix in="SourceAlpha" type="matrix" values="0 0 0 0 0 0 0 0 0 0 0 0 0 0 0 0 0 0 127 0" result="hardAlpha"/>
<feOffset dy="4"/>
<feGaussianBlur stdDeviation="2"/>
<feComposite in2="hardAlpha" operator="out"/>
<feColorMatrix type="matrix" values="0 0 0 0 0 0 0 0 0 0 0 0 0 0 0 0 0 0 0.25 0"/>
<feBlend mode="normal" in2="BackgroundImageFix" result="effect1_dropShadow_1370_283"/>
<feBlend mode="normal" in="SourceGraphic" in2="effect1_dropShadow_1370_283" result="shape"/>
</filter>
<linearGradient id="paint0_linear_1370_283" x1="16.5053" y1="2.33044" x2="16.5053" y2="25.6696" gradientUnits="userSpaceOnUse">
<stop stop-color="#FFEC88"/>
<stop offset="1" stop-color="#FFA95A"/>
</linearGradient>
</defs>
</svg>
