<svg width="32" height="34" viewBox="0 0 32 34" fill="none" xmlns="http://www.w3.org/2000/svg">
<g filter="url(#filter0_d_1751_1241)">
<path d="M27.1533 12.5299L25.5666 10.6866C25.2633 10.3366 25.0183 9.68324 25.0183 9.21657V7.23324C25.0183 5.99657 24.0033 4.98157 22.7666 4.98157H20.7833C20.3283 4.98157 19.6633 4.73657 19.3133 4.43324L17.4699 2.84657C16.6649 2.15824 15.3466 2.15824 14.5299 2.84657L12.6983 4.44491C12.3483 4.73657 11.6833 4.98157 11.2283 4.98157H9.20994C7.97328 4.98157 6.95828 5.99657 6.95828 7.23324V9.22824C6.95828 9.68324 6.71328 10.3366 6.42161 10.6866L4.84661 12.5416C4.16994 13.3466 4.16994 14.6532 4.84661 15.4582L6.42161 17.3132C6.71328 17.6632 6.95828 18.3166 6.95828 18.7716V20.7666C6.95828 22.0032 7.97328 23.0182 9.20994 23.0182H11.2283C11.6833 23.0182 12.3483 23.2632 12.6983 23.5666L14.5416 25.1532C15.3466 25.8416 16.6649 25.8416 17.4816 25.1532L19.3249 23.5666C19.6749 23.2632 20.3283 23.0182 20.7949 23.0182H22.7783C24.0149 23.0182 25.0299 22.0032 25.0299 20.7666V18.7832C25.0299 18.3282 25.2749 17.6632 25.5783 17.3132L27.1649 15.4699C27.8416 14.6649 27.8416 13.3349 27.1533 12.5299ZM20.8533 11.7949L15.2183 17.4299C15.0549 17.5932 14.8333 17.6866 14.5999 17.6866C14.3666 17.6866 14.1449 17.5932 13.9816 17.4299L11.1583 14.6066C10.8199 14.2682 10.8199 13.7082 11.1583 13.3699C11.4966 13.0316 12.0566 13.0316 12.3949 13.3699L14.5999 15.5749L19.6166 10.5582C19.9549 10.2199 20.5149 10.2199 20.8533 10.5582C21.1916 10.8966 21.1916 11.4566 20.8533 11.7949Z" fill="url(#paint0_linear_1751_1241)"/>
</g>
<defs>
<filter id="filter0_d_1751_1241" x="-2" y="0" width="36" height="36" filterUnits="userSpaceOnUse" color-interpolation-filters="sRGB">
<feFlood flood-opacity="0" result="BackgroundImageFix"/>
<feColorMatrix in="SourceAlpha" type="matrix" values="0 0 0 0 0 0 0 0 0 0 0 0 0 0 0 0 0 0 127 0" result="hardAlpha"/>
<feOffset dy="4"/>
<feGaussianBlur stdDeviation="2"/>
<feComposite in2="hardAlpha" operator="out"/>
<feColorMatrix type="matrix" values="0 0 0 0 0 0 0 0 0 0 0 0 0 0 0 0 0 0 0.25 0"/>
<feBlend mode="normal" in2="BackgroundImageFix" result="effect1_dropShadow_1751_1241"/>
<feBlend mode="normal" in="SourceGraphic" in2="effect1_dropShadow_1751_1241" result="shape"/>
</filter>
<linearGradient id="paint0_linear_1751_1241" x1="16.0051" y1="2.33032" x2="16.0051" y2="25.6695" gradientUnits="userSpaceOnUse">
<stop stop-color="#FFEC88"/>
<stop offset="1" stop-color="#FFA95A"/>
</linearGradient>
</defs>
</svg>
