<svg xmlns="http://www.w3.org/2000/svg" fill="none" viewBox="4.34 2.33 23.33 23.34">
<g filter="url(#filter0_d_1531_1398)">
<path d="M27.1535 12.53L25.5669 10.6867C25.2635 10.3367 25.0185 9.68336 25.0185 9.21669V7.23336C25.0185 5.99669 24.0035 4.98169 22.7669 4.98169H20.7835C20.3285 4.98169 19.6635 4.73669 19.3135 4.43336L17.4702 2.84669C16.6652 2.15836 15.3469 2.15836 14.5302 2.84669L12.6985 4.44503C12.3485 4.73669 11.6835 4.98169 11.2285 4.98169H9.21019C7.97352 4.98169 6.95852 5.99669 6.95852 7.23336V9.22836C6.95852 9.68336 6.71352 10.3367 6.42186 10.6867L4.84686 12.5417C4.17019 13.3467 4.17019 14.6534 4.84686 15.4584L6.42186 17.3134C6.71352 17.6634 6.95852 18.3167 6.95852 18.7717V20.7667C6.95852 22.0034 7.97352 23.0184 9.21019 23.0184H11.2285C11.6835 23.0184 12.3485 23.2634 12.6985 23.5667L14.5419 25.1534C15.3469 25.8417 16.6652 25.8417 17.4819 25.1534L19.3252 23.5667C19.6752 23.2634 20.3285 23.0184 20.7952 23.0184H22.7785C24.0152 23.0184 25.0302 22.0034 25.0302 20.7667V18.7834C25.0302 18.3284 25.2752 17.6634 25.5785 17.3134L27.1652 15.47C27.8419 14.665 27.8419 13.335 27.1535 12.53ZM20.8535 11.795L15.2185 17.43C15.0552 17.5934 14.8335 17.6867 14.6002 17.6867C14.3669 17.6867 14.1452 17.5934 13.9819 17.43L11.1585 14.6067C10.8202 14.2684 10.8202 13.7084 11.1585 13.37C11.4969 13.0317 12.0569 13.0317 12.3952 13.37L14.6002 15.575L19.6169 10.5584C19.9552 10.22 20.5152 10.22 20.8535 10.5584C21.1919 10.8967 21.1919 11.4567 20.8535 11.795Z" fill="url(#paint0_linear_1531_1398)"/>
</g>
<defs>
<filter id="filter0_d_1531_1398" x="-2" y="0" width="36" height="36" filterUnits="userSpaceOnUse" color-interpolation-filters="sRGB">
<feFlood flood-opacity="0" result="BackgroundImageFix"/>
<feColorMatrix in="SourceAlpha" type="matrix" values="0 0 0 0 0 0 0 0 0 0 0 0 0 0 0 0 0 0 127 0" result="hardAlpha"/>
<feOffset dy="4"/>
<feGaussianBlur stdDeviation="2"/>
<feComposite in2="hardAlpha" operator="out"/>
<feColorMatrix type="matrix" values="0 0 0 0 0 0 0 0 0 0 0 0 0 0 0 0 0 0 0.25 0"/>
<feBlend mode="normal" in2="BackgroundImageFix" result="effect1_dropShadow_1531_1398"/>
<feBlend mode="normal" in="SourceGraphic" in2="effect1_dropShadow_1531_1398" result="shape"/>
</filter>
<linearGradient id="paint0_linear_1531_1398" x1="16.0053" y1="2.33044" x2="16.0053" y2="25.6696" gradientUnits="userSpaceOnUse">
<stop stop-color="#FFEC88"/>
<stop offset="1" stop-color="#FFA95A"/>
</linearGradient>
</defs>
</svg>