<svg xmlns="http://www.w3.org/2000/svg" fill="none" viewBox="2.42 2.41 24.17 24.17">
<path d="M26.0518 12.9775L24.4085 11.0683C24.0943 10.7058 23.8406 10.0292 23.8406 9.54582V7.49166C23.8406 6.21082 22.7893 5.15957 21.5085 5.15957H19.4543C18.9831 5.15957 18.2943 4.90582 17.9318 4.59166L16.0226 2.94832C15.1889 2.23541 13.8235 2.23541 12.9776 2.94832L11.0806 4.60374C10.7181 4.90582 10.0293 5.15957 9.55806 5.15957H7.46764C6.18681 5.15957 5.13556 6.21082 5.13556 7.49166V9.55791C5.13556 10.0292 4.88181 10.7058 4.57973 11.0683L2.94848 12.9896C2.24764 13.8233 2.24764 15.1767 2.94848 16.0104L4.57973 17.9317C4.88181 18.2942 5.13556 18.9708 5.13556 19.4421V21.5083C5.13556 22.7892 6.18681 23.8404 7.46764 23.8404H9.55806C10.0293 23.8404 10.7181 24.0942 11.0806 24.4083L12.9897 26.0517C13.8235 26.7646 15.1889 26.7646 16.0347 26.0517L17.9439 24.4083C18.3064 24.0942 18.9831 23.8404 19.4664 23.8404H21.5206C22.8014 23.8404 23.8526 22.7892 23.8526 21.5083V19.4542C23.8526 18.9829 24.1064 18.2942 24.4206 17.9317L26.0639 16.0225C26.7647 15.1887 26.7647 13.8112 26.0518 12.9775ZM19.5268 12.2162L13.6906 18.0525C13.5214 18.2217 13.2918 18.3183 13.0501 18.3183C12.8085 18.3183 12.5789 18.2217 12.4097 18.0525L9.48556 15.1283C9.13514 14.7779 9.13514 14.1979 9.48556 13.8475C9.83598 13.4971 10.416 13.4971 10.7664 13.8475L13.0501 16.1312L18.246 10.9354C18.5964 10.585 19.1764 10.585 19.5268 10.9354C19.8772 11.2858 19.8772 11.8658 19.5268 12.2162Z" fill="url(#paint0_linear_2827_3327)"/>
<defs>
<linearGradient id="paint0_linear_2827_3327" x1="14.5054" y1="2.41364" x2="14.5054" y2="26.5863" gradientUnits="userSpaceOnUse">
<stop stop-color="#FFEC88"/>
<stop offset="1" stop-color="#FFA95A"/>
</linearGradient>
</defs>
</svg>