<svg width="41" height="46" viewBox="0 0 41 46" fill="none" xmlns="http://www.w3.org/2000/svg">
<g filter="url(#filter0_d_924_2802)">
<path d="M19.25 30.9166H15.5C13.6667 30.9166 12.1667 32.4166 12.1667 34.2499V34.6666H10.5C9.81667 34.6666 9.25 35.2333 9.25 35.9166C9.25 36.5999 9.81667 37.1666 10.5 37.1666H30.5C31.1833 37.1666 31.75 36.5999 31.75 35.9166C31.75 35.2333 31.1833 34.6666 30.5 34.6666H28.8333V34.2499C28.8333 32.4166 27.3333 30.9166 25.5 30.9166H21.75V27.0999C21.3333 27.1499 20.9167 27.1666 20.5 27.1666C20.0833 27.1666 19.6667 27.1499 19.25 27.0999V30.9166Z" fill="white"/>
<path d="M31.3 19.9C32.4 19.4833 33.3667 18.8 34.1334 18.0333C35.6834 16.3167 36.7 14.2667 36.7 11.8667C36.7 9.46666 34.8167 7.58333 32.4167 7.58333H31.4834C30.4 5.36666 28.1334 3.83333 25.5 3.83333H15.5C12.8667 3.83333 10.6 5.36666 9.51672 7.58333H8.58338C6.18338 7.58333 4.30005 9.46666 4.30005 11.8667C4.30005 14.2667 5.31672 16.3167 6.86672 18.0333C7.63338 18.8 8.60005 19.4833 9.70005 19.9C11.4334 24.1667 15.6 27.1667 20.5 27.1667C25.4 27.1667 29.5667 24.1667 31.3 19.9ZM25.2334 14.5833L24.2 15.85C24.0334 16.0333 23.9167 16.4 23.9334 16.65L24.0334 18.2833C24.1 19.2833 23.3834 19.8 22.45 19.4333L20.9334 18.8333C20.7 18.75 20.3 18.75 20.0667 18.8333L18.55 19.4333C17.6167 19.8 16.9 19.2833 16.9667 18.2833L17.0667 16.65C17.0834 16.4 16.9667 16.0333 16.8 15.85L15.7667 14.5833C15.1167 13.8167 15.4001 12.9667 16.3667 12.7167L17.95 12.3167C18.2 12.25 18.5 12.0167 18.6334 11.8L19.5167 10.4333C20.0667 9.58333 20.9334 9.58333 21.4834 10.4333L22.3667 11.8C22.5 12.0167 22.8 12.25 23.05 12.3167L24.6334 12.7167C25.6 12.9667 25.8834 13.8167 25.2334 14.5833Z" fill="white"/>
</g>
<defs>
<filter id="filter0_d_924_2802" x="0.300049" y="3.83333" width="40.3999" height="41.3333" filterUnits="userSpaceOnUse" color-interpolation-filters="sRGB">
<feFlood flood-opacity="0" result="BackgroundImageFix"/>
<feColorMatrix in="SourceAlpha" type="matrix" values="0 0 0 0 0 0 0 0 0 0 0 0 0 0 0 0 0 0 127 0" result="hardAlpha"/>
<feOffset dy="4"/>
<feGaussianBlur stdDeviation="2"/>
<feComposite in2="hardAlpha" operator="out"/>
<feColorMatrix type="matrix" values="0 0 0 0 0 0 0 0 0 0 0 0 0 0 0 0 0 0 0.25 0"/>
<feBlend mode="normal" in2="BackgroundImageFix" result="effect1_dropShadow_924_2802"/>
<feBlend mode="normal" in="SourceGraphic" in2="effect1_dropShadow_924_2802" result="shape"/>
</filter>
</defs>
</svg>
